<?xml version="1.0" encoding="utf-8"?>
<!-- Generator: Adobe Illustrator 19.1.0, SVG Export Plug-In . SVG Version: 6.00 Build 0)  -->
<svg version="1.1" id="Слой_1" xmlns="http://www.w3.org/2000/svg" xmlns:xlink="http://www.w3.org/1999/xlink" x="0px" y="0px"
	 viewBox="0 0 302.4 302.4" style="enable-background:new 0 0 302.4 302.4;" xml:space="preserve">
<style type="text/css">
	.st0{fill:#FFFFFF;}
</style>
<g>
	<g>
		<path class="st0" d="M174.8,170.6c-40.3,0-79.6,0-118.8,0c-0.2-0.3-0.3-0.4-0.4-0.5c-0.1-0.1-0.2-0.3-0.2-0.4c0-12.5,0-25,0-37.4
			c0.1-0.2,0.2-0.3,0.4-0.4c0.1-0.1,0.3-0.2,0.4-0.2c0.2,0,0.3,0,0.5,0c38.6,0,77.3,0,115.9-0.1c0.1,0,0.3-0.2,0.8-0.5
			c-19.7-19.7-39.2-39.2-58.9-58.9c3.3-0.8,42.4-1.1,52.9-0.4c26.6,26.6,53.1,53.1,79.6,79.6c-2.1,3.4-56.1,58-79.3,80.1
			c-17.6,0-35.4,0-53.7,0c10.4-10.4,20.4-20.4,30.4-30.4C154.3,191,164.2,181.1,174.8,170.6z"/>
	</g>
	<path class="st0" d="M151.2,0C67.7,0,0,67.7,0,151.2c0,83.5,67.7,151.2,151.2,151.2c83.5,0,151.2-67.7,151.2-151.2
		C302.4,67.7,234.7,0,151.2,0z M151.2,272.9c-67.2,0-121.7-54.5-121.7-121.7C29.5,84,84,29.5,151.2,29.5S272.9,84,272.9,151.2
		C272.9,218.4,218.4,272.9,151.2,272.9z"/>
</g>
</svg>
