<?xml version="1.0" encoding="utf-8"?>
<!-- Generator: Adobe Illustrator 19.1.0, SVG Export Plug-In . SVG Version: 6.00 Build 0)  -->
<svg version="1.1" id="Слой_1" xmlns="http://www.w3.org/2000/svg" xmlns:xlink="http://www.w3.org/1999/xlink" x="0px" y="0px"
	 viewBox="0 0 54.8 56.2" style="enable-background:new 0 0 54.8 56.2;" xml:space="preserve">
<style type="text/css">
	.st0{fill:#4B7599;}
	.st1{fill:#B5823E;}
	.st2{fill:#7BA54C;}
</style>
<path class="st2" d="M23,5.5c-6.7,6.7-7.2,17.2-1.6,24.5l-1.9,1.9c-0.9,0.1-1.8,0.4-2.5,1.1L1.2,48.8c-1.5,1.5-1.5,4.1,0,5.6L1.8,55
	c1.5,1.5,4.1,1.5,5.6,0l15.8-15.8c0.9-0.9,1.3-2.2,1.1-3.4l1.6-1.6c7.2,4.8,17.1,4,23.5-2.3c7.3-7.3,7.3-19.1,0-26.4
	S30.3-1.8,23,5.5z M45.1,27.6c-5,5-13,5-17.9,0c-5-5-5-13,0-17.9c5-5,13-5,17.9,0C50.1,14.6,50.1,22.7,45.1,27.6z"/>
</svg>
