<?xml version="1.0" encoding="utf-8"?>
<!-- Generator: Adobe Illustrator 19.1.0, SVG Export Plug-In . SVG Version: 6.00 Build 0)  -->
<svg version="1.1" id="Слой_1" xmlns="http://www.w3.org/2000/svg" xmlns:xlink="http://www.w3.org/1999/xlink" x="0px" y="0px"
	 viewBox="0 0 51.3 55.1" style="enable-background:new 0 0 51.3 55.1;" xml:space="preserve">
<style type="text/css">
	.st0{fill:#4B7599;}
	.st1{fill:#B5823E;}
	.st2{fill:#7BA54C;}
</style>
<g>
	<path class="st0" d="M20.4,2.5c0,1,0,1.9,0,2.7c0,0.8,0,1.6,0,2.4c0,0.5-0.1,0.9-0.6,1.3c-1.2,1-2.4,2.1-3.6,3.1
		c-0.3,0.3-0.7,0.3-1.1,0.3c-1.3-0.2-2.8,0.8-2.7,2.6c0,0.5-0.3,0.6-0.5,0.9c-1.9,1.7-3.8,3.4-5.8,5c-0.2,0.1-0.3,0.3-0.5,0.5
		c1.5,1.1,3,2.3,4.5,3.3c4.9,3.6,9.7,7.2,14.6,10.7c1.1,0.8,0.7,0.8,1.7,0c3-2.2,6-4.4,9.1-6.6c3-2.2,6.1-4.5,9.1-6.8
		c0.3-0.3,0.7-0.5,1-0.8c-1.4-1.3-2.8-2.5-4.2-3.7c-0.7-0.6-1.4-1.2-2.1-1.8c-0.3-0.3-0.5-0.6-0.6-1.1c-0.1-1.5-1-2.2-2.5-2.2
		c-0.5,0-0.8-0.1-1.2-0.4c-1.2-1.1-2.5-2.2-3.7-3.3C31.2,8.5,31,8.2,31,8c0-1.8,0-3.6,0-5.6c0.7,0.6,1.4,1.2,2,1.7
		c4.1,3.5,8.1,7.1,12.2,10.6c1.6,1.4,3.2,2.8,4.8,4.2c0.2,0.2,0.5,0.4,0.8,0.5c0.4,0.1,0.6,0.4,0.6,0.8c0,0.2,0,0.4,0,0.6
		c0,10.9,0,21.9,0,32.8c0,1.5,0,1.5-1.5,1.5c-16.1,0-32.3,0-48.4,0c-1.5,0-1.5,0-1.5-1.5c0-10.9,0-21.9,0-32.8c0-0.3,0-0.5,0-0.8
		c0-0.4,0.2-0.6,0.6-0.7c0.5,0,0.8-0.4,1.2-0.7C7.2,14,12.6,9.2,18.1,4.5C18.8,3.9,19.5,3.3,20.4,2.5z M46.9,26
		c-0.4,0.3-0.7,0.4-0.9,0.6c-3.9,2.8-7.7,5.7-11.6,8.5c-2.7,2-5.4,4-8.1,5.9c-0.7,0.5-0.7,0.5-1.4,0c-0.8-0.5-1.5-1.1-2.3-1.7
		c-5.8-4.2-11.5-8.5-17.3-12.7c-0.3-0.2-0.5-0.5-1-0.5c0,0.3,0,0.6,0,0.9c0,7.4,0,14.9,0,22.3c0,1.2-0.1,1.1,1.1,1.1
		c13.4,0,26.8,0,40.3,0c1.2,0,1.1,0.1,1.1-1.1c0-7.4,0-14.8,0-22.2C46.9,26.9,46.9,26.6,46.9,26z"/>
	<path class="st0" d="M22.3,17c0-0.5,0-0.9,0-1.3c0-4.7,0-9.4,0-14.1c0-0.3,0-0.5,0-0.8c0-0.7,0.2-0.9,0.9-0.9c1.7,0,3.4,0,5.1,0
		c0.7,0,0.8,0.1,0.8,0.8c0,0.3,0,0.5,0,0.8c0,4.8,0,9.5,0,14.3c0,0.4,0,0.7,0,1.2c0.3-0.1,0.5-0.1,0.7-0.2c1.9-0.7,3.8-1.5,5.7-2.2
		c0.1,0,0.2-0.1,0.3-0.1c0.4-0.2,0.8-0.3,1.1,0.1c0.3,0.4,0,0.7-0.3,1c-1.2,1.6-2.5,3.2-3.7,4.8c-2.1,2.8-4.3,5.5-6.4,8.3
		c0,0.1-0.1,0.1-0.1,0.2c-0.7,0.8-0.9,0.8-1.6,0c-3.4-4.4-6.8-8.8-10.1-13.2c0,0,0-0.1-0.1-0.1c-0.2-0.3-0.6-0.6-0.2-1.1
		c0.3-0.4,0.7-0.2,1.1,0c2,0.8,3.9,1.5,5.9,2.3C21.7,16.9,21.9,16.9,22.3,17z"/>
</g>
</svg>
