<?xml version="1.0" encoding="utf-8"?>
<!-- Generator: Adobe Illustrator 19.1.0, SVG Export Plug-In . SVG Version: 6.00 Build 0)  -->
<svg version="1.1" id="Слой_1" xmlns="http://www.w3.org/2000/svg" xmlns:xlink="http://www.w3.org/1999/xlink" x="0px" y="0px"
	 viewBox="0 0 88.6 50.5" style="enable-background:new 0 0 88.6 50.5;" xml:space="preserve">
<style type="text/css">
	.st0{fill:#FFFDFE;}
	.st1{fill:#FFFFFF;}
</style>
<g>
	<path class="st1" d="M29.4,3.3c0.7-1.6,1.9-2.3,3.3-2.6c1.8-0.4,3.6-0.7,5.5-0.7C41,0,43.8,0,46.6,0.3c4.1,0.3,5.2,1.5,5.2,5.6
		c0,3.6-0.2,7.2-0.2,10.7c0,1.6,0.1,3.1,0.2,4.7c0,0.4,0.1,0.9,0.3,1.3c0.8,2.2,2.2,2.7,3.9,1.1c1.3-1.2,2.5-2.6,3.5-4.1
		c3.1-4.3,5.5-8.9,7.6-13.8c0.2-0.5,0.4-1,0.6-1.6c0.5-1.3,1.5-1.9,2.9-1.9c1.3,0,2.6,0,3.9,0c3.4,0,6.8,0,10.3-0.1c0.3,0,0.7,0,1,0
		c2.6,0.2,3.5,1.3,2.6,3.8c-0.7,1.9-1.7,3.8-2.8,5.5c-2.5,3.7-5.3,7.2-7.9,10.9c-0.8,1.1-1.7,2.2-2.4,3.4c-1.5,2.3-1.4,3.7,0.5,5.7
		c1.3,1.4,2.8,2.7,4.2,4.1c2.1,2.1,4.1,4.3,6.1,6.5c1,1.1,1.8,2.5,2.4,3.8c0.8,1.8,0.2,3.1-1.6,3.7c-0.8,0.3-1.7,0.4-2.6,0.5
		c-3.7,0.1-7.4,0.2-11.1,0.3c-2.5,0.1-4.7-0.6-6.5-2.3c-2-1.8-3.8-3.9-5.7-5.9c-0.9-1-1.8-2-2.9-2.8c-2.1-1.5-3.9-1.1-4.9,1.2
		c-0.6,1.5-0.8,3.1-1.1,4.7c-0.1,0.6,0,1.2-0.1,1.8c-0.2,1.7-1.1,2.7-2.8,2.8c-9.5,0.8-18.1-1.4-25.4-7.9
		c-4.9-4.4-8.6-9.8-12.1-15.4C7.3,20.3,3.8,13.5,0.6,6.4c-1.3-2.9-0.5-4.1,2.7-4.1c3.8,0,7.5,0,11.3-0.1c2.1,0,3.5,0.9,4.3,2.9
		c2,4.8,4.3,9.3,7.2,13.6c0.9,1.4,1.9,2.6,2.9,3.9c0.2,0.3,0.4,0.5,0.7,0.7c2.3,2.2,4.1,1.7,4.8-1.4c0.8-3.4,0.8-6.8,0.6-10.2
		c-0.1-1.3-0.2-2.6-0.4-3.8c-0.4-2.3-1.7-3.7-3.9-4.3C30.2,3.6,29.9,3.5,29.4,3.3z"/>
</g>
</svg>
