<?xml version="1.0" encoding="utf-8"?>
<!-- Generator: Adobe Illustrator 19.1.0, SVG Export Plug-In . SVG Version: 6.00 Build 0)  -->
<svg version="1.1" id="Слой_1" xmlns="http://www.w3.org/2000/svg" xmlns:xlink="http://www.w3.org/1999/xlink" x="0px" y="0px"
	 viewBox="0 0 59.7 50.6" style="enable-background:new 0 0 59.7 50.6;" xml:space="preserve">
<style type="text/css">
	.st0{fill:#FFFDFE;}
	.st1{fill:#FFFFFF;}
</style>
<g>
	<path class="st0" d="M0.1,22.1c0.2,0.1,0.4,0.1,0.5,0.2c6.1,3.3,12.6,5.5,19.2,7.3c0.7,0.2,1.3,0.4,2,0.5c0.4,0.1,0.5,0.3,0.5,0.6
		c0,0.9,0,1.8,0,2.7c0,1.2,0.5,1.7,1.7,1.7c4.2,0,8.5,0,12.7,0c1.1,0,1.7-0.5,1.7-1.6c0-0.9,0-1.8,0-2.6c0-0.5,0.2-0.7,0.7-0.8
		c4.3-1.1,8.5-2.4,12.6-4.1c2.5-1.1,5-2.3,7.5-3.5c0.2-0.1,0.4-0.2,0.7-0.3c0,0.3,0,0.5,0,0.7c0,7.9,0,15.7,0,23.6
		c0,2.6-1.6,4.2-4.2,4.2c-17.1,0-34.3,0-51.4,0c-2.4,0-4-1.6-4-4.1c0-6.5,0-13,0-19.6c0-1.4,0-2.8,0-4.2C0,22.5,0,22.3,0.1,22.1z"/>
	<path class="st0" d="M15.8,8c0-1.3,0-2.5,0-3.7c0-2.6,1.8-4.4,4.4-4.4c6.5,0,13.1,0,19.6,0c2.5,0,4.3,1.8,4.3,4.3
		c0,1.2,0,2.5,0,3.8c0.3,0,0.6,0,0.8,0c3.6,0,7.1,0,10.7,0c2.4,0,4,1.6,4,4c0,2.3,0,4.5,0,6.8c0,0.4-0.1,0.6-0.4,0.8
		c-2.9,1.8-5.9,3.2-9,4.4c-3.8,1.4-7.7,2.6-11.5,3.9c-0.1,0-0.2,0-0.5,0.1c0-0.7,0-1.5,0-2.2c0-0.2,0-0.5,0-0.7
		c0-1.1-0.5-1.7-1.6-1.7c-2.5,0-5,0-7.5,0c-1.8,0-3.5,0-5.3,0c-1.1,0-1.6,0.5-1.6,1.6c0,1,0,1.9,0,3c-1.3-0.4-2.4-0.7-3.6-1
		c-4.8-1.5-9.6-3.1-14.1-5.3c-1.4-0.7-2.7-1.5-4.1-2.2C0.2,19.4,0,19.1,0,18.9c0-2.3,0-4.7,0-7C0,9.6,1.7,8,4,8c3.7,0,7.3,0,11,0
		C15.2,8,15.5,8,15.8,8z M18.8,7.9c7.5,0,14.9,0,22.4,0c0-1.3,0-2.5,0-3.7c0-1-0.4-1.4-1.4-1.4c-2.5,0-5,0-7.5,0c-4,0-8.1,0-12.1,0
		c-0.8,0-1.3,0.4-1.3,1.2C18.7,5.3,18.8,6.6,18.8,7.9z"/>
	<path class="st0" d="M30.2,33.3c-1.4,0-2.7,0-4.1,0c-1.4,0-1.7-0.3-1.7-1.7c0-1.6,0-3.2,0-4.8c0-1,0.4-1.4,1.4-1.4
		c2.1,0,4.1,0,6.2,0c0.9,0,1.7,0,2.6,0c1.1,0,1.5,0.4,1.5,1.5c0,1.7,0,3.3,0,5c0,0.9-0.4,1.4-1.3,1.4c-0.8,0-1.5,0-2.3,0
		C31.7,33.3,30.9,33.3,30.2,33.3C30.2,33.3,30.2,33.3,30.2,33.3z"/>
</g>
</svg>
