<?xml version="1.0" encoding="utf-8"?>
<!-- Generator: Adobe Illustrator 19.1.0, SVG Export Plug-In . SVG Version: 6.00 Build 0)  -->
<svg version="1.1" id="Слой_1" xmlns="http://www.w3.org/2000/svg" xmlns:xlink="http://www.w3.org/1999/xlink" x="0px" y="0px"
	 viewBox="0 0 37.2 35.3" style="enable-background:new 0 0 37.2 35.3;" xml:space="preserve">
<style type="text/css">
	.st0{fill:#FFFDFE;}
	.st1{fill:#FFFFFF;}
</style>
<g>
	<path class="st1" d="M29.2,35.3c0-2.7,0-5.4,0-8c0-1.9,0-3.8,0-5.7c-0.1-2.6-1.4-4.2-3.6-4.3c-2.7-0.1-4.7,1.5-4.8,4.2
		c-0.1,3.5,0,7.1,0,10.6c0,1,0,2.1,0,3.3c-2.7,0-5.1,0-8,0c-0.1-3.9,0-7.9-0.1-11.8c0-3.9,0-7.8,0-11.9c2.6,0,5.1,0,7.8,0
		c0.2,0.7,0.3,1.4,0.5,2.2c0.4-0.1,0.7-0.1,0.8-0.3c2-2.1,4.4-2.8,7.2-2.6c3.7,0.3,6.9,3,7.5,6.7c0.3,2,0.4,4,0.4,6
		c0.1,3.8,0,7.6,0,11.6C34.6,35.3,32.2,35.3,29.2,35.3z"/>
	<path class="st1" d="M8.5,35.4c-2.8,0-5.3,0-8.1,0c0-7.9,0-15.7,0-23.7c2.7,0,5.3,0,8.1,0C8.5,19.5,8.5,27.3,8.5,35.4z"/>
	<path class="st1" d="M8.9,4C9,6.3,7,8.3,4.6,8.3C2.1,8.4,0.1,6.6,0,4.3C-0.1,2,1.8,0.1,4.3,0C6.8,0,8.9,1.7,8.9,4z"/>
</g>
</svg>
