<?xml version="1.0" encoding="utf-8"?>
<!-- Generator: Adobe Illustrator 19.1.0, SVG Export Plug-In . SVG Version: 6.00 Build 0)  -->
<svg version="1.1" id="Слой_1" xmlns="http://www.w3.org/2000/svg" xmlns:xlink="http://www.w3.org/1999/xlink" x="0px" y="0px"
	 viewBox="0 0 58.2 58.4" style="enable-background:new 0 0 58.2 58.4;" xml:space="preserve">
<style type="text/css">
	.st0{fill:#4B7599;}
	.st1{fill:#B5823E;}
	.st2{fill:#7BA54C;}
</style>
<g>
	<g>
		<path class="st1" d="M0,36.8c1.6-0.3,3.2-0.6,4.8-0.8c0.4-0.1,0.6-0.3,0.8-0.7c0.3-1,0.7-1.9,1.2-2.8C7,32.1,7,31.9,6.7,31.6
			c-1-1.4-2-2.8-2.9-4.1C5,26.3,6.1,25.2,7.2,24c1.3,0.9,2.7,1.9,4,2.9c0.4,0.3,0.7,0.3,1.1,0.1c0.9-0.4,1.8-0.8,2.7-1.1
			c0.4-0.1,0.6-0.3,0.6-0.7c0.2-1.4,0.5-2.9,0.7-4.3c0.1-0.7,0.3-0.9,1-0.8c1.1,0.1,2.2,0,3.4,0c0.4,0,0.6,0.1,0.7,0.6
			c0.2,1.6,0.5,3.1,0.8,4.6c0,0.2,0.3,0.5,0.5,0.6c1,0.4,2,0.9,3,1.2c0.2,0.1,0.6,0.1,0.8-0.1c1.4-1,2.8-2,4.2-3
			c1.1,1.1,2.2,2.2,3.4,3.4c-0.9,1.3-1.8,2.6-2.8,3.9c-0.4,0.5-0.5,0.9-0.1,1.5c0.4,0.8,0.7,1.7,1,2.5c0.1,0.4,0.3,0.6,0.7,0.6
			c1.5,0.2,3,0.5,4.4,0.7c0.6,0.1,0.8,0.3,0.7,0.9c0,1.1,0,2.3,0,3.4c0,0.5-0.1,0.7-0.6,0.7c-1.5,0.2-3,0.5-4.5,0.8
			c-0.4,0.1-0.6,0.3-0.8,0.7c-0.3,0.9-0.7,1.9-1.1,2.8c-0.2,0.4-0.2,0.6,0.1,1c1,1.4,2,2.8,3,4.2c-1.1,1.1-2.3,2.2-3.5,3.3
			c-1-0.7-2.2-1.5-3.3-2.4c-0.8-0.6-1.5-0.9-2.4-0.2c-0.6,0.4-1.4,0.6-2.2,0.9c-0.2,0.1-0.5,0.2-0.5,0.4c-0.3,1.8-0.6,3.6-0.9,5.3
			c-1.6,0-3.2,0-4.9,0c-0.3-1.7-0.6-3.4-0.8-5.1c-0.1-0.4-0.3-0.6-0.6-0.7c-0.9-0.3-1.8-0.6-2.6-1.1c-0.5-0.3-0.9-0.3-1.4,0.1
			c-1.3,1-2.7,1.9-4,2.8C6,53.2,4.9,52.1,3.8,51c1-1.4,2-2.7,2.9-4.1c0.1-0.2,0.2-0.6,0.1-0.8c-0.4-1-0.8-2-1.2-3
			c-0.1-0.2-0.3-0.4-0.4-0.5C3.4,42.2,1.7,42,0,41.7C0,40,0,38.4,0,36.8z M25.7,39.3c0-3.7-3-6.7-6.7-6.7c-3.7,0-6.7,3-6.8,6.7
			c0,3.7,3,6.7,6.7,6.7C22.7,46,25.7,43,25.7,39.3z"/>
		<path class="st1" d="M58.2,10.4c-1.1,0.7-2.1,1.4-3.2,2c-0.4,0.2-0.5,0.4-0.5,0.9c0.1,0.6,0.1,1.2,0,1.8c-0.1,0.7,0.2,1,0.7,1.3
			c1,0.6,1.9,1.2,3,1.8c-0.4,1-0.8,2-1.3,3c-0.1,0.1-0.4,0.2-0.6,0.2c-1.1-0.2-2.2-0.5-3.3-0.7c-0.3,0-0.6,0.1-0.8,0.3
			c-0.4,0.3-0.6,0.8-1,1c-0.9,0.5-0.9,1.2-0.6,2.2c0.3,0.9,0.5,1.9,0.7,3c-1.1,0.5-2.2,0.9-3.4,1.4c-0.7-1.1-1.4-2.2-2.1-3.3
			c-0.2-0.4-0.5-0.5-0.9-0.4c-0.7,0.1-1.3,0.1-2,0c-0.5-0.1-0.7,0.1-1,0.5c-0.6,1.1-1.3,2.1-2,3.2c-1-0.4-2.1-0.8-3.1-1.3
			c-0.1-0.1-0.2-0.4-0.1-0.7c0.2-1.1,0.5-2.1,0.8-3.2c0.1-0.4,0-0.6-0.3-0.9c-0.5-0.5-1.1-1-1.5-1.5c-0.3-0.3-0.5-0.4-0.9-0.3
			c-1,0.2-2.1,0.4-3.1,0.7c-0.4,0.1-0.6,0-0.8-0.4c-0.3-0.9-0.7-1.9-1.2-2.9c1-0.6,2-1.3,3.1-1.9c0.5-0.3,0.7-0.6,0.6-1.2
			c-0.1-0.6-0.1-1.2,0-1.8c0.1-0.5-0.1-0.7-0.4-0.9c-0.9-0.6-1.8-1.2-2.7-1.7c-0.4-0.2-0.4-0.5-0.2-0.9c0.3-0.7,0.6-1.4,0.9-2.2
			C31,7,31.3,6.9,31.8,7c1,0.3,2,0.5,3,0.7c0.4,0.1,0.6,0,0.9-0.3c0.4-0.5,0.9-1,1.5-1.5c0.3-0.3,0.4-0.6,0.3-1
			c-0.3-1.1-0.5-2.1-0.7-3.2c0-0.2,0.1-0.6,0.3-0.6c0.9-0.4,1.9-0.8,3-1.2c0.6,1,1.3,2.1,1.9,3.1c0.3,0.4,0.5,0.6,1.1,0.6
			c0.6-0.1,1.2-0.1,1.8,0c0.6,0.1,0.9-0.1,1.2-0.6c0.5-0.9,1.1-1.7,1.6-2.6C47.8,0.2,48,0,48.3,0.2c1,0.4,1.9,0.8,3,1.2
			C51,2.6,50.8,3.8,50.5,5c-0.1,0.5-0.1,0.8,0.3,1.1c0.5,0.4,0.9,0.8,1.3,1.3c0.4,0.5,0.8,0.6,1.3,0.4c1-0.3,2-0.5,3-0.7
			C56.7,7,56.9,7,57,7.4C57.4,8.4,57.8,9.3,58.2,10.4z M44,19.4c2.8,0,5.1-2.4,5.1-5.2c0-2.8-2.4-5.1-5.2-5.1
			c-2.8,0-5.1,2.3-5.1,5.2C38.9,17.1,41.2,19.4,44,19.4z"/>
	</g>
</g>
</svg>
