<?xml version="1.0" encoding="utf-8"?>
<!-- Generator: Adobe Illustrator 19.1.0, SVG Export Plug-In . SVG Version: 6.00 Build 0)  -->
<svg version="1.1" id="Слой_1" xmlns="http://www.w3.org/2000/svg" xmlns:xlink="http://www.w3.org/1999/xlink" x="0px" y="0px"
	 viewBox="0 0 25.3 24.9" style="enable-background:new 0 0 25.3 24.9;" xml:space="preserve">
<style type="text/css">
	.st0{fill:#FFFDFE;}
	.st1{fill:#FFFFFF;}
	.st2{fill:#D83634;}
</style>
<g>
	<path class="st1" d="M5.3,0c0.4,0.5,0.8,1,1.2,1.5c0.9,1.4,1.8,2.8,2.5,4.3c0.2,0.5,0.2,0.5-0.2,0.9C8.2,7.2,7.6,7.6,7.1,8.1
		C6.4,8.8,6.4,8.9,6.7,9.7c1.2,3.5,3.3,6.3,6.5,8.2c0.9,0.5,1.9,0.9,2.9,1c0.4,0,0.8-0.1,1.1-0.4c0.4-0.4,0.7-0.7,1.1-1.1
		c0.2-0.2,0.4-0.4,0.6-0.5c0.2-0.2,0.5-0.2,0.8-0.1c1.8,1,3.6,2.1,5.2,3.4c0.6,0.4,0.6,0.5,0,1c-1.4,1.3-3,2.4-4.6,3.4
		c-0.5,0.3-0.9,0.2-1.4,0.2c-1.5-0.1-2.9-0.6-4.2-1.3c-1.8-0.9-3.5-2.1-5-3.5c-2.2-1.9-4.2-4.1-5.9-6.5c-1.3-1.9-2.4-3.9-3-6.2
		C0.7,6.9,0.6,6.5,0.5,6c0,0,0-0.1,0-0.1c0-0.2,0-0.3,0-0.5c0.7-1,1.4-1.9,2.2-2.9C3.4,1.7,4.2,0.7,5.1,0C5.2,0,5.2,0,5.3,0z"/>
	<path class="st1" d="M14.1,0c0.4,0.1,0.9,0.1,1.3,0.2c4,0.8,6.9,3.1,8.7,6.7c0.7,1.5,1.1,3,1.1,4.6c0,0.1,0,0.2,0,0.3
		c-0.7,0.1-1.4,0.2-2.1,0.3c0-2.8-0.9-5.2-2.9-7.1c-2-2-4.4-2.9-7.1-2.9c0.1-0.6,0.2-1.2,0.3-1.8c0-0.1,0-0.2,0-0.3
		C13.6,0,13.9,0,14.1,0z"/>
	<path class="st1" d="M12.4,7.4c0.1-0.7,0.2-1.4,0.3-2.1c4.1-0.5,7.8,3.1,7.3,7.3c-0.7,0.1-1.4,0.2-2.1,0.3c0.2-1.6-0.1-3-1.3-4.2
		C15.4,7.6,14,7.2,12.4,7.4z"/>
</g>
</svg>
