<?xml version="1.0" encoding="UTF-8"?>
<!-- Generator: Adobe Illustrator 19.1.0, SVG Export Plug-In . SVG Version: 6.00 Build 0)  -->
<svg version="1.1" id="Слой_1" xmlns="http://www.w3.org/2000/svg" xmlns:xlink="http://www.w3.org/1999/xlink" x="0px" y="0px" viewBox="120.7 375.6 336.3 97.6" style="enable-background:new 120.7 375.6 336.3 97.6;" xml:space="preserve">
<style type="text/css">
	.st0{fill:#45A9DB;}
	.st1{fill:#277F9A;}
	.st2{fill:#4A7193;}
	.st3{fill:#304A59;}
</style>
<g>
	<g>
		<polygon class="st0" points="168.1,375.6 120.7,406.8 120.7,426.3 168.1,395.1   "/>
	</g>
	<g>
		<polygon class="st0" points="121.9,427.4 144.9,446.4 164.6,435.6 140.5,415.1   "/>
	</g>
	<g>
		<polygon class="st1" points="121.9,427.4 164.6,435.6 140.5,415.1   "/>
	</g>
	<g>
		<polygon class="st2" points="166.7,405.8 193.8,423.9 193.8,445.3 150.6,416.4   "/>
	</g>
	<g>
		<g>
			<polygon class="st2" points="193.8,425.9 193.8,424 192.3,424.9    "/>
		</g>
		<g>
			<polygon class="st2" points="174.9,434.7 144.4,451.8 144.4,473.2 192.2,446.3    "/>
		</g>
	</g>
	<g>
		<polygon class="st3" points="144.4,451.8 192.2,446.3 174.9,434.7   "/>
	</g>
	<g>
		<path class="st2" d="M297.9,423.1c0.1,1.5,0.7,7.6,7.6,7.6c4.9,0,7.6-3.5,7.6-7.5c0-4.5-3.3-6.1-4.9-6.7    c-4.7-1.8-12.9-2.2-12.9-10.7c0-4.1,2.8-10,10.5-10c6.8,0,10,5.1,10.1,10h-3.7c-0.1-2.3-1.3-6.6-6.9-6.6c-4.5,0-6.3,3.4-6.3,6.7    c0,4,2.7,5.2,7.3,6.5c3.9,1.1,10.5,2.9,10.5,10.9c0,5-3.6,10.8-11.2,10.8c-6.4,0-11.4-4.5-11.4-11L297.9,423.1L297.9,423.1z"/>
		<path class="st2" d="M344.3,406.2L328.6,443h-3.9l4.5-10.8l-10.7-26h4.4l8.6,21.2l9-21.2H344.3z"/>
		<path class="st2" d="M349.5,425.4c-0.2,2.8,1.6,5.3,4.9,5.3c3.1,0,4.8-2.3,4.8-4.7c0-3.3-2.7-4.3-5.3-5.2    c-2.8-0.9-7.1-2.4-7.1-7.6c0-4.3,2.9-7.7,7.9-7.7c4.5,0,7.6,3.2,7.5,7.4h-3.7c0-2.4-1.6-4.1-3.9-4.1c-2.6,0-4.1,1.7-4.1,4    c0,3.1,2.8,4.1,5.3,4.9c3.2,1,7.1,2.4,7.1,7.6c0,5-3.2,8.7-8.8,8.7c-5.7,0-8.3-4.1-8.3-8.7h3.7V425.4z"/>
		<path class="st2" d="M370.3,409.5h-5.7v-3.3h5.7v-9.6h3.7v9.6h6.3v3.3H374v23.9h-3.7V409.5z"/>
		<path class="st2" d="M386.8,421.1c0.4,5.4,4.6,9.6,10.4,9.6c4.3,0,7.8-2.4,9.5-6.2h3.8c-2.2,5.9-7.2,9.5-13.4,9.5    c-8,0-14.2-6.1-14.2-14.3c0-6.7,4.9-14.3,14.2-14.3c10.3,0,14.1,8.6,14,15.6L386.8,421.1L386.8,421.1z M407.2,417.8    c-1-5.5-5.3-8.9-10-8.9c-5.2,0-9.5,3.7-10.4,8.9H407.2z"/>
		<path class="st2" d="M416.4,406.2h3.5v3.5h0.1c1.6-2.9,4.6-4.2,7.5-4.2c5.7,0,8.3,3.3,9.3,5.2c1.9-3.3,5.5-5.3,9.2-5.3    c4.3,0,11,2.4,11,12.4v15.5h-3.7v-15.6c0-7.5-4.7-9-7.5-9c-2.3,0-4.4,1.1-5.5,2.4c-1.8,2.1-1.7,4.6-1.7,6.5v15.6h-3.7v-15.6    c0-5.2-2.3-9-7.4-9c-7.5,0-7.4,7.8-7.4,9v15.6h-3.7L416.4,406.2L416.4,406.2z"/>
	</g>
	<g>
		<path class="st0" d="M216.3,396.6H228c10.8,0,12.7,6.9,12.7,11.1c0,5.5-3.4,11-12.7,11h-8v14.8h-3.7V396.6z M220,415.3h8    c6.6,0,9-3.8,9-7.7c0-3.9-2.4-7.7-9-7.7h-8V415.3z"/>
		<path class="st0" d="M273,433.4h-3.5v-5.1h-0.1c-1.5,2.3-4.7,5.7-10.6,5.7c-8.2,0-14.6-6-14.6-14.5c0-6.5,4.7-14.1,14.5-14.1    c2.3,0,7.4,0.3,10.7,5.4h0.1v-4.7h3.5V433.4z M247.9,419.9c0,6.2,5.1,10.8,10.9,10.8c6,0,10.7-4.8,10.7-10.8    c0-6.2-4.6-11.1-10.8-11.1C252.8,408.9,247.9,413.6,247.9,419.9z"/>
		<path class="st0" d="M282.4,409.5h-5.7v-3.3h5.7v-9.6h3.7v9.6h6.3v3.3h-6.3v23.9h-3.7V409.5z"/>
	</g>
	<g>
		<path class="st2" d="M336.1,440.4h0.9v8.5h-0.9V440.4z"/>
		<path class="st2" d="M339.9,441.2h-2v-0.8h4.8v0.8h-2v7.8h-0.9v-7.8H339.9z"/>
		<path class="st2" d="M346.6,447.1c-0.1,0.6,0.4,1.2,1.1,1.2s1.1-0.5,1.1-1.1c0-0.8-0.6-1-1.2-1.2c-0.7-0.2-1.7-0.6-1.7-1.8    c0-1,0.7-1.8,1.8-1.8c1,0,1.8,0.8,1.7,1.7h-0.9c0-0.6-0.4-0.9-0.9-0.9c-0.6,0-0.9,0.4-0.9,0.9c0,0.7,0.6,1,1.2,1.1    c0.8,0.2,1.6,0.6,1.6,1.8c0,1.2-0.7,2-2,2s-1.9-1-1.9-2L346.6,447.1L346.6,447.1z"/>
		<path class="st2" d="M357.1,445.8c0,1.9-1.4,3.3-3.3,3.3s-3.3-1.4-3.3-3.3s1.4-3.3,3.3-3.3C355.6,442.5,357.1,443.9,357.1,445.8z     M351.3,445.8c0,1.4,1,2.5,2.4,2.5s2.4-1.1,2.4-2.5s-1-2.5-2.4-2.5C352.3,443.2,351.3,444.4,351.3,445.8z"/>
		<path class="st2" d="M358.3,440.4h0.9v8.5h-0.9V440.4z"/>
		<path class="st2" d="M366.1,448.9h-0.8V448l0,0c-0.5,0.7-1.2,1.1-2.1,1.1c-1.5,0-2.8-0.9-2.8-3.1v-3.3h0.9v3.3c0,1.8,1,2.4,2,2.4    c0.9,0,1.9-0.5,1.9-2.2v-3.5h0.9V448.9z"/>
		<path class="st2" d="M368.3,443.4H367v-0.8h1.3v-2.2h0.9v2.2h1.5v0.8h-1.5v5.5h-0.9V443.4z"/>
		<path class="st2" d="M371.5,440.4h0.9v1.5h-0.9V440.4z M371.5,442.6h0.9v6.3h-0.9V442.6z"/>
		<path class="st2" d="M380.2,445.8c0,1.9-1.4,3.3-3.3,3.3s-3.3-1.4-3.3-3.3s1.4-3.3,3.3-3.3C378.7,442.5,380.2,443.9,380.2,445.8z     M374.4,445.8c0,1.4,1,2.5,2.4,2.5s2.4-1.1,2.4-2.5s-1-2.5-2.4-2.5C375.5,443.2,374.4,444.4,374.4,445.8z"/>
		<path class="st2" d="M381.4,442.6h0.8v0.9l0,0c0.5-0.7,1.2-1.1,2.1-1.1c1.4,0,2.8,0.9,2.8,3.1v3.3h-0.9v-3.3c0-0.5,0-2.4-2-2.4    c-0.9,0-1.9,0.5-1.9,2.2v3.5h-0.9V442.6z"/>
		<path class="st2" d="M388.8,447.1c-0.1,0.6,0.4,1.2,1.1,1.2s1.1-0.5,1.1-1.1c0-0.8-0.6-1-1.2-1.2c-0.7-0.2-1.7-0.6-1.7-1.8    c0-1,0.7-1.8,1.8-1.8c1,0,1.8,0.8,1.7,1.7h-0.9c0-0.6-0.4-0.9-0.9-0.9c-0.6,0-0.9,0.4-0.9,0.9c0,0.7,0.6,1,1.2,1.1    c0.8,0.2,1.6,0.6,1.6,1.8c0,1.2-0.7,2-2,2s-1.9-1-1.9-2L388.8,447.1L388.8,447.1z"/>
		<path class="st2" d="M396,443.4h-1v-0.8h1v-0.1c0-1.2,0.8-2.1,2.3-2.1h0.2v0.8h-0.2c-0.3,0-1.4,0-1.4,1.3v0.1h1.6v0.8h-1.6v5.5    H396V443.4z"/>
		<path class="st2" d="M405.6,445.8c0,1.9-1.4,3.3-3.3,3.3s-3.3-1.4-3.3-3.3s1.4-3.3,3.3-3.3S405.6,443.9,405.6,445.8z M399.8,445.8    c0,1.4,1,2.5,2.4,2.5s2.4-1.1,2.4-2.5s-1-2.5-2.4-2.5C400.9,443.2,399.8,444.4,399.8,445.8z"/>
		<path class="st2" d="M406.8,442.6h0.8v0.9l0,0c0.3-0.7,1-1.1,1.8-1.1v0.9c-0.8,0-1.8,0.6-1.8,1.9v3.7h-0.9v-6.3H406.8z"/>
		<path class="st2" d="M413.8,440.4v3.3l0,0c0.6-0.9,1.5-1.2,2.4-1.2c2.3,0,3.4,1.8,3.4,3.3c0,1.9-1.5,3.3-3.4,3.3    c-1,0-1.9-0.4-2.4-1.2l0,0v1.1H413v-8.5L413.8,440.4L413.8,440.4z M413.8,445.8c0,1.4,1.1,2.5,2.5,2.5s2.5-1.1,2.5-2.5    c0-1.5-1.1-2.6-2.5-2.6S413.8,444.4,413.8,445.8z"/>
		<path class="st2" d="M426.4,448.9h-0.8V448l0,0c-0.5,0.7-1.2,1.1-2.1,1.1c-1.5,0-2.8-0.9-2.8-3.1v-3.3h0.9v3.3c0,1.8,1,2.4,2,2.4    c0.9,0,1.9-0.5,1.9-2.2v-3.5h0.9V448.9z"/>
		<path class="st2" d="M428.2,447.1c-0.1,0.6,0.4,1.2,1.1,1.2s1.1-0.5,1.1-1.1c0-0.8-0.6-1-1.2-1.2c-0.7-0.2-1.7-0.6-1.7-1.8    c0-1,0.7-1.8,1.8-1.8c1,0,1.8,0.8,1.7,1.7h-0.9c0-0.6-0.4-0.9-0.9-0.9c-0.6,0-0.9,0.4-0.9,0.9c0,0.7,0.6,1,1.2,1.1    c0.8,0.2,1.6,0.6,1.6,1.8c0,1.2-0.7,2-2,2s-1.9-1-1.9-2L428.2,447.1L428.2,447.1z"/>
		<path class="st2" d="M432.3,440.4h0.9v1.5h-0.9V440.4z M432.3,442.6h0.9v6.3h-0.9V442.6z"/>
		<path class="st2" d="M434.6,442.6h0.8v0.9l0,0c0.5-0.7,1.2-1.1,2.1-1.1c1.4,0,2.8,0.9,2.8,3.1v3.3h-0.9v-3.3c0-0.5,0-2.4-2-2.4    c-0.9,0-1.9,0.5-1.9,2.2v3.5h-0.9V442.6z"/>
		<path class="st2" d="M442.3,446.1c0.1,1.3,1.1,2.2,2.4,2.2c1,0,1.8-0.6,2.2-1.4h0.9c-0.5,1.4-1.7,2.2-3.1,2.2    c-1.9,0-3.3-1.4-3.3-3.3c0-1.6,1.1-3.3,3.3-3.3c2.4,0,3.3,2,3.2,3.6L442.3,446.1L442.3,446.1z M447.1,445.3    c-0.2-1.3-1.2-2.1-2.3-2.1c-1.2,0-2.2,0.9-2.4,2.1H447.1z"/>
		<path class="st2" d="M449.6,447.1c-0.1,0.6,0.4,1.2,1.1,1.2s1.1-0.5,1.1-1.1c0-0.8-0.6-1-1.2-1.2c-0.7-0.2-1.7-0.6-1.7-1.8    c0-1,0.7-1.8,1.8-1.8c1,0,1.8,0.8,1.7,1.7h-0.9c0-0.6-0.4-0.9-0.9-0.9c-0.6,0-0.9,0.4-0.9,0.9c0,0.7,0.6,1,1.2,1.1    c0.8,0.2,1.6,0.6,1.6,1.8c0,1.2-0.7,2-2,2s-1.9-1-1.9-2L449.6,447.1L449.6,447.1z"/>
		<path class="st2" d="M454.1,447.1c-0.1,0.6,0.4,1.2,1.1,1.2s1.1-0.5,1.1-1.1c0-0.8-0.6-1-1.2-1.2c-0.7-0.2-1.7-0.6-1.7-1.8    c0-1,0.7-1.8,1.8-1.8c1,0,1.8,0.8,1.7,1.7H456c0-0.6-0.4-0.9-0.9-0.9c-0.6,0-0.9,0.4-0.9,0.9c0,0.7,0.6,1,1.2,1.1    c0.8,0.2,1.6,0.6,1.6,1.8c0,1.2-0.7,2-2,2s-1.9-1-1.9-2L454.1,447.1L454.1,447.1z"/>
	</g>
</g>
</svg>