<?xml version="1.0" encoding="utf-8"?>
<!-- Generator: Adobe Illustrator 19.1.0, SVG Export Plug-In . SVG Version: 6.00 Build 0)  -->
<svg version="1.1" id="Слой_1" xmlns="http://www.w3.org/2000/svg" xmlns:xlink="http://www.w3.org/1999/xlink" x="0px" y="0px"
	 viewBox="0 0 52.4 52.3" style="enable-background:new 0 0 52.4 52.3;" xml:space="preserve">
<style type="text/css">
	.st0{fill:#4B7599;}
	.st1{fill:#B5823E;}
	.st2{fill:#7BA54C;}
</style>
<g>
	<g>
		<path class="st2" d="M47,41.8c0,2.8,0,5.6,0,8.4c0,1.5-0.6,2.1-2.1,2.1c-3.2,0-6.4,0-9.7,0c-1.6,0-2.1-0.6-2.1-2.2
			c0-4.5,0-9,0-13.5c0-1.7-0.5-2.2-2.2-2.2c-3.2,0-6.4,0-9.7,0c-1.6,0-2.2,0.6-2.2,2.2c0,4.3,0,8.5,0,12.8c0,0.3,0,0.6,0,0.8
			c0,1.3-0.6,1.9-1.9,1.9c-1.1,0-2.1,0-3.2,0c-2.2,0-4.5,0-6.7,0c-1.5,0-2.1-0.6-2.1-2.1c0-3.9,0-7.7,0-11.6c0-1.7,0-3.4,0-5
			c0-1,0.4-1.7,1.1-2.4c0.8-0.7,1.6-1.6,2.4-2.4c1-1,2-1.9,3-2.9c4.3-4.3,8.6-8.6,12.9-12.9c0.1-0.1,0.1-0.1,0.2-0.2
			c1-0.9,1.8-0.9,2.7,0c1.7,1.7,3.5,3.5,5.2,5.2c3.4,3.4,6.9,6.9,10.3,10.3c0.9,0.9,1.9,1.7,2.8,2.7c0.7,0.7,1.3,1.6,1.2,2.7
			C47,36.5,47,39.2,47,41.8z"/>
		<path class="st2" d="M26.1,8.8c-0.6-0.1-1,0.3-1.4,0.7c-2.2,2.2-4.3,4.3-6.5,6.5c-3.4,3.4-6.8,6.8-10.2,10.2
			c-0.6,0.6-1.2,1.3-1.9,2c-0.5,0.5-1.1,1-1.6,1.4c-0.7,0.5-1.4,0.5-2.1-0.2c-0.6-0.6-1.2-1.2-1.8-1.9c-0.9-1-0.9-1.8,0.1-2.8
			c4-4,8.1-8.1,12.1-12.1C16.7,8.7,20.6,4.8,24.5,1c0.1-0.1,0.2-0.3,0.4-0.4c0.9-0.8,1.7-0.8,2.6,0c1.7,1.6,3.3,3.3,5,5
			c6.4,6.4,12.8,12.8,19.2,19.2c1.1,1.1,1.1,1.9,0,3c-0.6,0.6-1.1,1.2-1.7,1.7c-0.9,0.7-1.4,0.7-2.3,0c-0.3-0.3-0.6-0.6-0.9-0.9
			c-6.3-6.3-12.6-12.7-18.9-19C27.3,9.2,26.9,8.8,26.1,8.8z"/>
		<path class="st2" d="M43.9,7.5c0,1.4,0,2.8,0,4.2c0,0.2,0,0.5,0,0.7c-0.1,0.4-0.4,0.6-0.8,0.3c-0.3-0.2-0.5-0.4-0.7-0.6
			c-1.9-1.9-3.8-3.9-5.7-5.8c-0.5-0.5-0.8-1.1-0.8-1.9c0-0.6,0-1.3,0-1.9c0-1.1,0.4-1.5,1.5-1.6c0.8,0,1.5,0,2.3,0
			c0.7,0,1.5,0,2.2,0c1.4,0,2,0.6,2,2C43.9,4.5,43.9,6,43.9,7.5z"/>
	</g>
</g>
</svg>
