<?xml version="1.0" encoding="utf-8"?>
<!-- Generator: Adobe Illustrator 19.1.0, SVG Export Plug-In . SVG Version: 6.00 Build 0)  -->
<svg version="1.1" id="Слой_1" xmlns="http://www.w3.org/2000/svg" xmlns:xlink="http://www.w3.org/1999/xlink" x="0px" y="0px"
	 viewBox="0 0 59.1 50.3" style="enable-background:new 0 0 59.1 50.3;" xml:space="preserve">
<style type="text/css">
	.st0{fill:#4B7599;}
	.st1{fill:#B5823E;}
	.st2{fill:#7BA54C;}
</style>
<g>
	<g>
		<path class="st0" d="M0.1,22c0.2,0.1,0.4,0.1,0.5,0.2c6,3.3,12.5,5.5,19,7.3c0.6,0.2,1.3,0.4,1.9,0.5c0.4,0.1,0.5,0.3,0.5,0.6
			c0,0.9,0,1.8,0,2.7c0,1.2,0.5,1.6,1.7,1.6c4.2,0,8.4,0,12.6,0c1.1,0,1.6-0.5,1.6-1.6c0-0.9,0-1.7,0-2.6c0-0.5,0.2-0.7,0.7-0.8
			c4.3-1.1,8.4-2.4,12.5-4.1c2.5-1.1,5-2.3,7.5-3.5c0.2-0.1,0.4-0.2,0.7-0.3c0,0.3,0,0.5,0,0.7c0,7.8,0,15.6,0,23.4
			c0,2.6-1.5,4.2-4.2,4.2c-17,0-34,0-51,0c-2.4,0-4-1.6-4-4.1c0-6.5,0-12.9,0-19.4c0-1.4,0-2.8,0-4.2C0,22.5,0,22.3,0.1,22z"/>
		<path class="st0" d="M15.6,8.1c0-1.3,0-2.5,0-3.7C15.6,1.8,17.4,0,20,0c6.5,0,13,0,19.5,0c2.5,0,4.3,1.8,4.3,4.3
			c0,1.2,0,2.4,0,3.8c0.3,0,0.6,0,0.8,0c3.5,0,7,0,10.6,0c2.4,0,4,1.6,4,4c0,2.3,0,4.5,0,6.8c0,0.4-0.1,0.6-0.4,0.8
			c-2.8,1.8-5.8,3.2-8.9,4.3c-3.8,1.4-7.6,2.6-11.4,3.9c-0.1,0-0.2,0-0.5,0.1c0-0.7,0-1.4,0-2.1c0-0.2,0-0.5,0-0.7
			c0-1.1-0.5-1.6-1.6-1.6c-2.5,0-5,0-7.5,0c-1.7,0-3.5,0-5.2,0c-1.1,0-1.6,0.5-1.6,1.6c0,1,0,1.9,0,3c-1.2-0.4-2.4-0.7-3.5-1
			c-4.8-1.5-9.5-3.1-14-5.3c-1.4-0.7-2.7-1.4-4.1-2.2C0.2,19.4,0,19.1,0,18.9c0-2.3,0-4.6,0-6.9c0-2.3,1.7-3.9,4-3.9
			c3.6,0,7.2,0,10.9,0C15.1,8.1,15.3,8.1,15.6,8.1z M18.6,8C26,8,33.4,8,40.8,8c0-1.2,0-2.5,0-3.7c0-1-0.4-1.4-1.4-1.4
			c-2.5,0-4.9,0-7.4,0c-4,0-8,0-12,0c-0.8,0-1.3,0.4-1.3,1.2C18.6,5.4,18.6,6.7,18.6,8z"/>
		<path class="st0" d="M29.9,33.2c-1.3,0-2.7,0-4,0c-1.4,0-1.7-0.3-1.7-1.7c0-1.6,0-3.2,0-4.7c0-1,0.4-1.4,1.4-1.4c2,0,4.1,0,6.1,0
			c0.9,0,1.7,0,2.6,0c1.1,0,1.5,0.4,1.5,1.5c0,1.7,0,3.3,0,5c0,0.9-0.4,1.3-1.3,1.4c-0.8,0-1.5,0-2.3,0
			C31.4,33.2,30.7,33.2,29.9,33.2C29.9,33.2,29.9,33.2,29.9,33.2z"/>
	</g>
</g>
</svg>
