<?xml version="1.0" encoding="utf-8"?>
<!-- Generator: Adobe Illustrator 19.1.0, SVG Export Plug-In . SVG Version: 6.00 Build 0)  -->
<svg version="1.1" id="Слой_1" xmlns="http://www.w3.org/2000/svg" xmlns:xlink="http://www.w3.org/1999/xlink" x="0px" y="0px"
	 viewBox="0 0 55.3 56.8" style="enable-background:new 0 0 55.3 56.8;" xml:space="preserve">
<style type="text/css">
	.st0{fill:#FFFDFE;}
	.st1{fill:#FFFFFF;}
</style>
<path class="st0" d="M23.2,5.7c-6.8,6.7-7.3,17.3-1.6,24.7l-1.9,1.9c-0.9,0.1-1.9,0.4-2.6,1.2L1.2,49.4c-1.6,1.6-1.6,4.1,0,5.6
	l0.6,0.6c1.6,1.6,4.1,1.6,5.7,0l15.9-15.9c0.9-0.9,1.3-2.2,1.1-3.5l1.6-1.6c7.3,4.9,17.3,4.1,23.7-2.4c7.4-7.3,7.4-19.2,0-26.6
	S30.5-1.6,23.2,5.7z M45.5,28c-5,5-13.1,5-18.1,0c-5-5-5-13.1,0-18.1c5-5,13.1-5,18.1,0C50.5,15,50.5,23.1,45.5,28z"/>
</svg>
