<?xml version="1.0" encoding="utf-8"?>
<!-- Generator: Adobe Illustrator 19.1.0, SVG Export Plug-In . SVG Version: 6.00 Build 0)  -->
<svg version="1.1" id="Слой_1" xmlns="http://www.w3.org/2000/svg" xmlns:xlink="http://www.w3.org/1999/xlink" x="0px" y="0px"
	 viewBox="0 0 33.5 29.1" style="enable-background:new 0 0 33.5 29.1;" xml:space="preserve">
<style type="text/css">
	.st0{fill:#FFFDFE;}
	.st1{fill:#FFFFFF;}
</style>
<g>
	<path class="st1" d="M0.4,25.9c3.4-0.3,6.3-1,8.8-3.2c-2.1-1.3-4.6-1.9-5.6-4.6c0.6-0.3,1.2-0.5,2-0.8c-2.3-1.6-4.8-3.1-4.9-6.5
		c0.8,0.1,1.6,0.2,2.9,0.4C0.9,8.2,0.1,5.2,1.7,1.5c4,4.4,8.6,7.2,14.7,7.3c0.2-1,0.3-1.9,0.5-2.8c1.2-5.5,6.5-7.7,11.1-4.5
		c1,0.7,1.8,0.7,2.8,0.4c0.6-0.2,1.3-0.5,2.2-0.4c-0.7,1-1.4,2-2.1,3c0.5,0,0.9,0,1.3,0c0.4,0,0.8-0.1,1.2-0.2c0,0.3,0,0.6-0.1,0.6
		c-2.6,1.4-2.5,3.9-2.9,6.5c-0.4,2.5-1.3,5.1-2.6,7.4c-4.2,7.6-14.4,11.9-22.5,9.8C3.7,28.1,2,27.6,0.4,25.9z"/>
</g>
</svg>
