<?xml version="1.0" encoding="utf-8"?>
<!-- Generator: Adobe Illustrator 19.1.0, SVG Export Plug-In . SVG Version: 6.00 Build 0)  -->
<svg version="1.1" id="Слой_1" xmlns="http://www.w3.org/2000/svg" xmlns:xlink="http://www.w3.org/1999/xlink" x="0px" y="0px"
	 viewBox="0 0 68.1 56.1" style="enable-background:new 0 0 68.1 56.1;" xml:space="preserve">
<style type="text/css">
	.st0{fill:#FFFDFE;}
	.st1{fill:#FFFFFF;}
</style>
<g>
	<path class="st1" d="M48.2,56.1c-0.3-0.3-0.6-0.6-1-0.8c-4.8-2.5-9.7-4.9-14.5-7.4c-1.1-0.6-2.2-0.6-3.4-0.5
		c-9.4,0.9-17.9-1.1-24.6-8.1C-1.5,33-1.5,23.8,4.5,17.3C9,12.6,14.6,10.2,21,9.2C26.6,8.4,32,9,37.2,11c2.1,0.8,4.1,2,6.1,3
		c0.4-0.4,0.8-0.9,1.3-1.2c0.3-0.2,0.9,0,1.2,0.2c0.8,0.5,0.6,1.2-0.7,2.6c3.7,3.6,6.2,7.8,6.1,13.1c-0.2,5.3-2.9,9.4-7,12.9
		c1.8,4.8,3.5,9.7,5.3,14.5C49.1,56.1,48.6,56.1,48.2,56.1z M25.6,44.1c2-0.3,4.1-0.3,6.1-0.8c4.3-1,8.1-2.9,11.1-6.3
		c2.4-2.7,3.7-5.9,3.5-9.5c-0.3-4.3-2.6-7.7-6.1-10.3c-6.4-4.7-13.6-5.4-21.2-3.7c-4.2,0.9-7.8,3-10.7,6.2c-4,4.7-4.7,10.5-1,15.8
		c1.2,1.6,2.7,3.1,4.3,4.3C15.8,42.8,20.5,44,25.6,44.1z"/>
	<path class="st1" d="M52.6,0c0.3,0.1,0.6,0.3,1,0.4c4.3,0.7,8.1,2.4,11.2,5.7c3.6,3.8,4.6,9.5,1.1,14.5c-0.2,0.3-0.4,0.6-0.6,0.9
		c-0.8,0.7-0.8,1.5-0.5,2.4c1.1,4.3,2.1,8.5,3.1,12.8c0,0.2,0,0.4,0.1,0.8c-4-3.5-7.8-6.9-11.7-10.3c-0.7,0.1-1.3,0.2-2.2,0.3
		c-0.3-0.8-0.6-1.5-1-2.4c3-0.6,5.5-1.6,7.7-3.5c4.7-4,5.1-10,1-14.1c-4-4-9-5.2-14.4-4.6c-4.4,0.5-8.2,2.3-11,6
		c-1-0.3-2-0.6-3.2-0.9c0.9-1.7,2.1-2.9,3.5-3.9c2.6-1.9,5.5-3.1,8.6-3.7C45.7,0.3,46,0.1,46.4,0C48.5,0,50.6,0,52.6,0z"/>
	<path class="st1" d="M50.9,14c0,0.7-0.5,1.3-1.1,1.4c-0.6,0-1.4-0.7-1.5-1.3c-0.1-0.7,0.5-1.2,1.2-1.3C50.3,12.7,50.9,13.2,50.9,14
		z"/>
	<path class="st1" d="M54.4,12.8c0.7,0,1.3,0.5,1.3,1.2c0,0.7-0.7,1.4-1.4,1.4c-0.6,0-1.2-0.6-1.3-1.2C53,13.3,53.5,12.8,54.4,12.8z
		"/>
	<path class="st1" d="M19.1,30.4c-1.1-0.1-1.9-1-1.8-2.1c0-1.1,0.9-1.9,2-1.9c1.1,0,2,1,1.9,2C21.1,29.4,20,30.5,19.1,30.4z"/>
	<path class="st1" d="M25.9,30.4c-0.9,0-2-1.1-1.9-2c0-1.1,0.9-1.9,2-1.9c1.1,0,2,0.9,1.9,1.9C27.8,29.5,26.9,30.4,25.9,30.4z"/>
	<path class="st1" d="M34.6,28.5c0,1-0.8,1.8-1.8,1.9c-1,0-2-1-2-2c0-1.2,0.8-1.9,2-1.9C33.9,26.5,34.6,27.3,34.6,28.5z"/>
</g>
</svg>
