<?xml version="1.0" encoding="utf-8"?>
<!-- Generator: Adobe Illustrator 19.1.0, SVG Export Plug-In . SVG Version: 6.00 Build 0)  -->
<svg version="1.1" id="Слой_1" xmlns="http://www.w3.org/2000/svg" xmlns:xlink="http://www.w3.org/1999/xlink" x="0px" y="0px"
	 viewBox="0 0 35.5 72.3" style="enable-background:new 0 0 35.5 72.3;" xml:space="preserve">
<style type="text/css">
	.st0{fill:#FFFDFE;}
	.st1{fill:#FFFFFF;}
</style>
<path class="st1" d="M21.9,36.4c0,12.2,0,23.9,0,35.9c-5.1,0-9.7,0-14.8,0c0-11.9,0-23.6,0-35.6c-2.5-0.3-4.6-0.6-7.1-0.9
	c0-3.4,0-6.8,0-10.7c2.1-0.2,4.2-0.4,6.7-0.6C6.8,23.3,6.9,22,7,20.7c0.1-1.2,0-2.4,0-3.5C7.3,4.6,11.8,0.4,24.8,0
	c3.4-0.1,6.9,0.8,10.7,1.3c-0.6,4.1-1.1,7.5-1.7,11.5c-2-0.2-3.7-0.3-5.5-0.5c-4.6-0.5-6.2,0.9-6.3,5.4c-0.1,2.2,0,4.3,0,7.1
	c4,0,7.8,0,12.1,0c-0.4,4-0.8,7.4-1.2,11.2C29.3,36.1,26,36.2,21.9,36.4z"/>
</svg>
