<?xml version="1.0" encoding="utf-8"?>
<!-- Generator: Adobe Illustrator 19.1.0, SVG Export Plug-In . SVG Version: 6.00 Build 0)  -->
<svg version="1.1" id="Слой_1" xmlns="http://www.w3.org/2000/svg" xmlns:xlink="http://www.w3.org/1999/xlink" x="0px" y="0px"
	 viewBox="0 0 44.9 43.3" style="enable-background:new 0 0 44.9 43.3;" xml:space="preserve">
<style type="text/css">
	.st0{fill:#FFFDFE;}
	.st1{fill:#FFFFFF;}
	.st2{fill:#D83634;}
</style>
<g>
	<path class="st0" d="M5,38.4c-0.8,0-1.6,0-2.4-0.2C1.1,38,0,36.6,0,35c1.9,0,3.9,0,5.8,0c1.9,0,3.8,0,5.8,0c0.2-1.6-1.4-3.3-3-3.4
		c-1.2,0-2.3,0-3.6,0c0-1.7,0-3.3,0-5c-0.6,0-1.2,0-1.8,0c-1.8,0-3.2-1.5-3.2-3.3c3.9,0,7.7,0,11.6,0c0.1-1.2-0.7-2.6-1.9-3
		c-0.5-0.2-1-0.3-1.5-0.3c-1,0-2,0-3.1,0c0,0-0.1,0-0.2,0c0-1.6,0-3.3,0-5c-0.6,0-1.2,0-1.7,0c-1.9-0.1-3.2-1.4-3.3-3.3
		c3.9,0,7.7,0,11.6,0c0.2-1.1-0.6-2.5-1.7-3c-0.4-0.2-1-0.3-1.4-0.4c-0.5-0.1-1.1,0-1.7,0c-0.6,0-1.1,0-1.7,0C5,8.2,5,8.1,5,8
		c0-1.2-0.1-2.5,0.1-3.7C5.4,1.8,7.4,0,9.9,0c4.2,0,8.3,0,12.5,0C28.2,0,34,0,39.7,0c0.9,0,1.6,0.4,1.8,1.2c0.2,0.7-0.1,1.5-0.7,1.8
		c-0.3,0.2-0.7,0.2-1,0.2c-6.4,0-12.7,0-19.1,0c-3.2,0-6.3,0-9.5,0c-0.8,0-1.3,0.3-1.3,0.9C10,4.7,10.5,5,11.2,5
		c7.2,0,14.3,0,21.5,0c2.4,0,4.8,0,7.2,0c2.9,0,5.1,2.2,5.1,5.1c0,9.4,0,18.8,0,28.1c0,2.8-2.2,5-5,5c-9.8,0-19.6,0-29.4,0
		C7.6,43.4,5.1,41.5,5,38.4z M33,37c0.7,0,1.8-0.5,2.9-1.2c1.1-0.7,1.3-1.6,0.6-2.7c-1-1.4-2-2.7-3-4c-0.6-0.7-1.5-0.9-2.3-0.4
		c-0.2,0.1-0.5,0.3-0.7,0.4c-1.1,0.6-2,0.5-2.8-0.5c-1.5-1.8-2.5-3.8-3-6.1c-0.3-1.3,0.1-2,1.4-2.6c0.3-0.1,0.5-0.2,0.8-0.3
		c0.9-0.3,1.3-1.2,1.1-2.1c-0.1-0.5-0.2-1-0.3-1.5c-0.3-1.1-0.5-2.2-0.8-3.3c-0.3-1.1-0.9-1.5-1.9-1.4c-2.8,0.5-4.4,2-4.9,4.2
		c-0.4,1.7-0.3,3.3,0,5c0.6,2.9,1.7,5.7,3.1,8.3c1.3,2.4,2.7,4.6,4.8,6.3C29.2,36.2,30.6,37,33,37z"/>
</g>
</svg>
