<?xml version="1.0" encoding="utf-8"?>
<!-- Generator: Adobe Illustrator 19.1.0, SVG Export Plug-In . SVG Version: 6.00 Build 0)  -->
<svg version="1.1" id="Слой_1" xmlns="http://www.w3.org/2000/svg" xmlns:xlink="http://www.w3.org/1999/xlink" x="0px" y="0px"
	 viewBox="0 0 51.9 55.5" style="enable-background:new 0 0 51.9 55.5;" xml:space="preserve">
<style type="text/css">
	.st0{fill:#FFFDFE;}
	.st1{fill:#FFFFFF;}
	.st2{fill:#D83634;}
</style>
<g>
	<path class="st0" d="M25.9,53.4c-0.1,0.1-0.2,0.2-0.3,0.3c-1,1.5-2.6,2-4.1,1.6c-1.6-0.5-2.6-1.9-2.6-3.6c0-2.7,0-5.3,0-8
		c0-2.7,0-5.3,0-8c0-1,0-1-1-1c-1.2,0-2.1-0.4-2.9-1.3c-0.6-0.7-0.9-1.6-0.9-2.5c0-4.3,0-8.6,0-12.9c0-2.2,1.5-3.7,3.8-3.8
		c1.3-0.1,2.6,0,4,0c0.3,0,0.6,0.2,0.8,0.4c0.9,1.1,1.9,2.3,2.8,3.5c0.1,0.2,0.3,0.3,0.5,0.6c0.6-0.8,1.3-1.6,1.9-2.3
		c0.5-0.6,0.9-1.2,1.4-1.8c0.2-0.2,0.4-0.4,0.6-0.4c1.5,0,3.1-0.1,4.6,0.1c1.9,0.2,3.2,1.6,3.3,3.6c0,4.4,0,8.8,0,13.2
		c0,2.2-1.6,3.7-3.8,3.7c-0.9,0-0.9,0-0.9,0.9c0,5.3,0,10.6,0,15.9c0,1.8-0.9,3.2-2.5,3.7c-1.5,0.5-3.1-0.1-4.1-1.4
		C26.2,53.8,26,53.6,25.9,53.4z"/>
	<path class="st0" d="M39.3,14.4c0.3,0,0.5,0,0.7,0c2.7,0,5.4,0,8.1,0c1.8,0,3.2,1,3.7,2.7c0.1,0.3,0.1,0.6,0.1,0.9
		c0,3.4,0,6.9,0,10.3c0,1.6-0.7,2.7-2.2,3.3c-0.5,0.2-0.6,0.5-0.6,0.9c0,4,0,8,0,12c0,1.6-0.7,2.6-2.1,2.9c-1.3,0.3-2.5-0.3-3.2-1.6
		c0-0.1-0.1-0.1-0.2-0.3c-0.1,0.2-0.2,0.4-0.3,0.5c-0.6,1.2-1.8,1.7-3.1,1.4c-1.3-0.3-2.1-1.3-2.1-2.6c0-2.9,0-5.8,0-8.6
		c0-0.3,0.2-0.7,0.4-0.9c1.3-1.3,1.9-2.8,1.9-4.6c0-3.8,0-7.6,0-11.5C40.5,17.6,40.5,16,39.3,14.4z"/>
	<path class="st0" d="M12.5,14.4c-1.2,1.6-1.2,3.2-1.2,4.8c0,3.8,0,7.7,0,11.5c0,1.9,0.6,3.5,2.1,4.8c0.3,0.3,0.4,0.6,0.4,0.9
		c0,2.8,0,5.5,0,8.3c0,1.4-0.8,2.5-2.1,2.8c-1.3,0.3-2.5-0.3-3.1-1.5c-0.1-0.1-0.1-0.2-0.2-0.3c-0.1,0.2-0.2,0.3-0.3,0.4
		c-0.6,1.2-1.8,1.8-3.1,1.5c-1.3-0.3-2.2-1.4-2.2-2.7c0-4,0-8.1,0-12.1c0-0.5-0.1-0.8-0.7-1.1C0.8,31,0,29.8,0,28.3
		c0-3.4,0-6.7,0-10.1c0-2.4,1.5-3.8,3.9-3.8c2.6,0,5.2,0,7.7,0C11.9,14.4,12.1,14.4,12.5,14.4z"/>
	<path class="st0" d="M25.9,11.8c-3.3,0-5.9-2.6-5.9-5.9C20,2.6,22.6,0,25.9,0c3.3,0,5.9,2.6,5.9,5.9C31.8,9.2,29.1,11.8,25.9,11.8z
		"/>
	<path class="st0" d="M43.6,3c2.4-0.2,4.8,2,4.8,4.7c0,2.7-2.1,4.7-4.7,4.7c-2.7,0-4.8-2.1-4.7-4.7C38.9,4.9,41.3,2.8,43.6,3z"/>
	<path class="st0" d="M8.3,3c2.5-0.2,4.8,2.1,4.7,4.7c-0.1,2.7-2,4.7-4.7,4.7c-2.7,0-4.6-2-4.7-4.7C3.5,5,5.9,2.8,8.3,3z"/>
</g>
</svg>
