<?xml version="1.0" encoding="utf-8"?>
<!-- Generator: Adobe Illustrator 19.1.0, SVG Export Plug-In . SVG Version: 6.00 Build 0)  -->
<svg version="1.1" id="Слой_1" xmlns="http://www.w3.org/2000/svg" xmlns:xlink="http://www.w3.org/1999/xlink" x="0px" y="0px"
	 viewBox="0 0 31.1 31.1" style="enable-background:new 0 0 31.1 31.1;" xml:space="preserve">
<style type="text/css">
	.st0{fill:#FFFDFE;}
	.st1{fill:#FFFFFF;}
	.st2{fill:#D83634;}
</style>
<g>
	<path class="st1" d="M30.6,15.7c-0.1,0.7-0.2,1.4-0.3,2.1c-0.1,0.6,0,1.3,0.2,1.9c0.9,2.6,0.7,5.3-0.8,7.6
		c-1.1,1.7-2.7,2.9-4.8,3.4c-2.1,0.5-4.1,0.4-6.1-0.4c-0.4-0.1-0.7-0.2-1.1-0.1c-4.6,0.4-8.7-0.7-12.2-3.9c-2.3-2.1-3.8-4.7-4.4-7.7
		c-0.3-1.5-0.5-3-0.2-4.6c0.2-0.7,0.1-1.4-0.2-2.2C0,10.4-0.1,8.7,0.1,7.1C0.3,4.8,1.5,3,3.3,1.7c2.1-1.5,4.4-1.9,7-1.5
		c1,0.2,1.9,0.5,2.8,0.9c0.2,0.1,0.4,0.1,0.6,0.1c4.2-0.6,8,0.4,11.3,3c2.8,2.2,4.6,5,5.4,8.5C30.5,13.6,30.5,14.6,30.6,15.7z
		 M15.7,5.3c-1.1,0.1-2.2,0.2-3.3,0.4c-1,0.2-2,0.6-2.9,1.2c-2,1.5-2.6,3.6-1.8,5.7c0.6,1.5,1.8,2.5,3.3,3.1c1.8,0.7,3.7,1,5.5,1.5
		c0.7,0.2,1.4,0.4,2,0.8c1.4,0.8,1.5,2.3,0.3,3.4c-0.2,0.2-0.5,0.4-0.8,0.5c-1.2,0.6-2.5,0.7-3.8,0.5c-1.4-0.2-2.3-1.2-2.9-2.5
		c-0.2-0.4-0.4-0.9-0.8-1.2c-0.7-0.7-1.8-0.9-2.7-0.4c-0.8,0.5-1.1,1.3-0.8,2.4c0.4,1.5,1.4,2.6,2.6,3.5c2,1.5,4.4,1.5,6.6,1.6
		c0.9,0.1,1.9-0.2,2.9-0.4c1.7-0.5,3.3-1.2,4.3-2.8c1.5-2.5,1.3-5.1-0.9-7c-1-0.9-2.3-1.4-3.6-1.7c-1.8-0.5-3.7-1-5.5-1.5
		c-0.2,0-0.3-0.1-0.5-0.2c-0.1-0.1-0.3-0.1-0.4-0.2c-1-0.8-1-2,0.1-2.7c0.9-0.6,2-0.6,3.1-0.6c1.4,0,2.5,0.6,3.3,1.8
		c0.3,0.4,0.5,0.8,0.8,1.2c0.5,0.6,1.5,0.8,2.2,0.6c0.9-0.4,1.4-1,1.4-1.9c0-0.4-0.1-0.7-0.2-1.1c-0.5-1.3-1.4-2.1-2.6-2.7
		C19.1,5.7,17.4,5.3,15.7,5.3z"/>
</g>
</svg>
