<?xml version="1.0" encoding="utf-8"?>
<!-- Generator: Adobe Illustrator 19.1.0, SVG Export Plug-In . SVG Version: 6.00 Build 0)  -->
<svg version="1.1" id="Слой_1" xmlns="http://www.w3.org/2000/svg" xmlns:xlink="http://www.w3.org/1999/xlink" x="0px" y="0px"
	 viewBox="0 0 32.7 29.8" style="enable-background:new 0 0 32.7 29.8;" xml:space="preserve">
<style type="text/css">
	.st0{fill:#FFFDFE;}
	.st1{fill:#FFFFFF;}
	.st2{fill:#D83634;}
</style>
<g>
	<path class="st1" d="M0,14.9c0-3.7,0-7.3,0-11c0-2,1.3-3.5,3.3-3.9C3.7,0,4,0,4.4,0c5.2,0,10.3,0,15.5,0c0.3,0,0.6,0,0.9,0
		c1,0.1,1.9,0.4,2.6,1.1c0.7,0.8,1.1,1.7,1.1,2.7c0,0.8-0.5,1.2-1.2,0.8c-0.1-0.1-0.3-0.3-0.3-0.5c-0.1-0.4,0-0.7-0.1-1.1
		c-0.3-0.9-1-1.5-2-1.6c-0.4,0-0.7,0-1.1,0c-5,0-10,0-15,0c-0.1,0-0.2,0-0.3,0c-1.9,0-2.8,0.9-2.8,2.8c0,7,0,14,0,21
		c0,0.3,0,0.5,0,0.8c0.1,1.1,0.8,1.8,1.8,2c0.3,0.1,0.7,0.1,1.1,0.1c5.2,0,10.4,0,15.7,0c0.5,0,0.9-0.1,1.4-0.2c0.9-0.4,1.4-1,1.4-2
		c0-2,0-4,0-6c0-0.3,0-0.5,0-0.8c0-0.5,0.2-0.7,0.7-0.7c0.7,0,0.8,0.1,0.8,0.7c0,2.4,0,4.9,0,7.3c-0.1,1.8-1.6,3.2-3.6,3.3
		c-0.2,0-0.4,0-0.5,0c-5.4,0-10.7,0-16.1,0c-0.3,0-0.7,0-1-0.1C1.4,29.4,0,27.9,0,25.9C0,22.2,0,18.6,0,14.9z"/>
	<path class="st1" d="M8.8,25.1c0.2-0.6,0.4-1.2,0.7-1.8c0.9-1.9,1.8-3.7,2.7-5.6c0.2-0.4,0.5-0.7,0.8-1c4.9-4.9,9.9-9.8,14.8-14.8
		c0.8-0.8,1.1-0.8,1.9,0c0.8,0.8,1.6,1.6,2.4,2.5c0.7,0.7,0.7,1,0,1.7c-1.5,1.5-3.1,3.1-4.6,4.6c-2.6,2.6-5.4,5.2-7.9,7.9
		c-2.2,2.3-4.7,4-7.5,5.3c-0.7,0.4-1.4,0.7-2.1,1c-0.3,0.1-0.7,0.2-1,0.3C8.9,25.2,8.9,25.2,8.8,25.1z M16.6,20.3
		c-0.4-0.1-0.5-0.1-0.6-0.1c-0.6,0.1-0.8-0.2-0.7-0.8c0-0.5,0-1.1,0-1.6c0-0.9-0.1-0.9-0.9-0.9c-0.5,0-0.7,0.3-0.9,0.7
		c-0.7,1.5-1.5,3-2.2,4.5c-0.1,0.3-0.2,0.6-0.5,1.1C12.8,22.2,14.6,21.3,16.6,20.3z M24.4,8.1c-0.2-0.2-0.4-0.4-0.6-0.5
		c-0.1,0-0.4,0.1-0.5,0.2c-0.7,0.6-1.3,1.3-1.9,1.9c-1.8,1.8-3.6,3.6-5.4,5.4c-0.4,0.4-0.4,0.6,0.1,0.9c0.4,0.3,0.6,0,0.8-0.2
		c2-2,3.9-3.9,5.9-5.9C23.1,9.5,23.6,9,24,8.6C24.1,8.4,24.2,8.3,24.4,8.1z M24.2,6.6c0.6,0.6,1.1,1.2,1.7,1.7
		c1.6,1.5,1,1.6,2.7-0.1c0.5-0.5,0.5-0.5,0-1.1c-0.7-0.7-1.4-1.4-2.1-2.2c-0.2-0.3-0.5-0.3-0.7,0C25.2,5.6,24.7,6.1,24.2,6.6z
		 M29.6,2.9c-0.1-0.2-0.3-0.4-0.5-0.5c-0.1-0.1-0.4,0-0.5,0.1c-0.5,0.4-0.9,0.9-1.4,1.4C27,4,26.9,4.3,27.2,4.6
		c0.3,0.3,0.6,0.3,0.9,0c0.5-0.5,1-1,1.4-1.5C29.5,3.1,29.6,3,29.6,2.9z"/>
	<path class="st1" d="M11.3,7c2.1,0,4.2,0,6.3,0c0.9,0,1.1,0.2,1.1,0.7c0,0.5-0.3,0.8-1.2,0.8c-4.2,0-8.3,0-12.5,0
		c-0.8,0-1.3-0.3-1.3-0.7C3.7,7.2,4.2,7,5.1,7C7.1,7,9.2,7,11.3,7z"/>
	<path class="st1" d="M8.7,13c-1.2,0-2.4,0-3.6,0c-0.2,0-0.4,0-0.7,0c-0.4-0.1-0.7-0.3-0.7-0.7C3.7,12,4,11.6,4.5,11.6
		c0.2,0,0.4,0,0.5,0c2.5,0,5,0,7.5,0c0.9,0,1.2,0.2,1.3,0.7c0,0.5-0.4,0.8-1.3,0.8C11.3,13,10,13,8.7,13z"/>
	<path class="st1" d="M6.8,17.6c-0.6,0-1.2,0-1.8,0c-0.2,0-0.5,0-0.6-0.1c-0.2-0.2-0.5-0.4-0.5-0.7c0-0.2,0.3-0.5,0.5-0.6
		c0.2-0.1,0.4-0.1,0.6-0.1c1.3,0,2.5,0,3.8,0c0.2,0,0.4,0,0.5,0c0.4,0.1,0.6,0.4,0.6,0.8c0,0.4-0.3,0.6-0.6,0.6
		C8.4,17.6,7.6,17.6,6.8,17.6L6.8,17.6z"/>
	<path class="st1" d="M5.3,22.2c-0.3,0-0.7,0-1,0c-0.4,0-0.6-0.4-0.6-0.8c0-0.4,0.3-0.6,0.7-0.6c0.6,0,1.2,0,1.8,0
		c0.4,0,0.6,0.2,0.7,0.6c0,0.4-0.2,0.7-0.6,0.8C6,22.2,5.7,22.2,5.3,22.2z"/>
</g>
</svg>
