<?xml version="1.0" encoding="utf-8"?>
<!-- Generator: Adobe Illustrator 19.1.0, SVG Export Plug-In . SVG Version: 6.00 Build 0)  -->
<svg version="1.1" id="Слой_1" xmlns="http://www.w3.org/2000/svg" xmlns:xlink="http://www.w3.org/1999/xlink" x="0px" y="0px"
	 viewBox="0 0 65.3 65.2" style="enable-background:new 0 0 65.3 65.2;" xml:space="preserve">
<style type="text/css">
	.st0{fill:#FFFFFF;}
</style>
<g>
	<path class="st0" d="M18,30.6C3.1,31.1-2,18,1.5,10.2c1.9,1.9,3.7,3.7,5.4,5.4c1.1,1,2.1,2.2,3.2,3.1c1.7,1.4,3.1,1.4,4.8,0
		c1.2-1,2.3-2.2,3.4-3.4c1.8-2,1.9-3.5,0-5.5c-2.2-2.3-4.5-4.5-6.7-6.7c-0.5-0.5-1-1.1-1.8-2c5.9-2,11-1.3,15.6,2.5
		c4.5,3.7,5.9,8.7,5.4,14.5c0.5,0.6,1.1,1.2,1.6,1.7c9.7,9.7,19.5,19.5,29.2,29.2c2.2,2.2,3.5,4.7,3.4,7.9
		c-0.3,6.5-7.4,10.4-13.3,7.1c-1.2-0.7-2.2-1.7-3.2-2.7C39.1,51.9,29.6,42.4,20.2,33C19.4,32.2,18.7,31.3,18,30.6z M56.7,51.9
		c-2.4-0.2-4.7,1.8-4.9,4.2c-0.2,2.5,1.9,4.9,4.5,5c2.3,0.1,4.6-2,4.8-4.4C61.2,54.4,59.2,52.1,56.7,51.9z"/>
	<path class="st0" d="M56.8,3.3c-2.7,1.7-4.4,4-6.4,5.8c-2.1,2-4.1,4-6.1,6.1c-1.9,2-3.8,4-5.9,6.2c-1.1-1-1.9-1.7-2.8-2.5
		c1.2-1.2,2.3-2.4,3.4-3.5c4.1-4.1,8.3-8.3,12.4-12.4C52.3,2.3,53.1,1.6,54,1c3-1.8,6.9-1.2,9.2,1.3c2.4,2.5,2.7,6.4,0.8,9.3
		c-0.4,0.6-0.8,1.1-1.3,1.6c-5,5.1-10.1,10.1-15.1,15.1c-0.3,0.3-0.7,0.6-1.2,1c-0.8-0.7-1.5-1.4-2.4-2.1c0.6-0.7,1.2-1.4,1.8-2
		c4.6-4.6,9.2-9.2,13.9-13.9c0.6-0.6,1.1-1.1,1.6-1.7c0.5-0.7,0.3-1.3-0.8-1.8c-6.1,5.6-11.7,11.8-18,17.7c-0.9-0.8-1.8-1.6-2.7-2.6
		c0.7-0.7,1.2-1.4,1.8-2c4.6-4.6,9.2-9.2,13.9-13.9C56,6.5,56.6,6,57,5.3C57.2,4.9,56.9,4.3,56.8,3.3z"/>
	<path class="st0" d="M8,50c3.5,0.1,5.7-1.9,7.8-4.2c2-2.2,4.1-4.3,6.2-6.5c1.4,1.3,2.5,2.5,3.8,3.8c-2.7,2.7-5.3,5.4-8,8
		c-1.3,1.2-2.1,2.6-2.3,4.3c-0.1,1.1-0.5,2-1.5,2.7c-3.6,2.3-7.1,4.7-10.9,7.1c-1-1-2-1.9-3.1-2.9C2.6,58.2,5.2,54.3,8,50z"/>
</g>
</svg>
