<?xml version="1.0" encoding="utf-8"?>
<!-- Generator: Adobe Illustrator 19.1.0, SVG Export Plug-In . SVG Version: 6.00 Build 0)  -->
<svg version="1.1" id="Слой_1" xmlns="http://www.w3.org/2000/svg" xmlns:xlink="http://www.w3.org/1999/xlink" x="0px" y="0px"
	 viewBox="0 0 80.6 60" style="enable-background:new 0 0 80.6 60;" xml:space="preserve">
<style type="text/css">
	.st0{fill:#FFFFFF;}
</style>
<g>
	<path class="st0" d="M40.2,60C29.1,60,18,59.9,7,60c-3.8,0-7-2.9-7-7C0.1,37.7,0,22.3,0,6.9C0,2.7,2.7,0,6.9,0
		c22.3,0,44.6,0,66.9,0c3.9,0,6.7,2.8,6.7,6.9c0,6.7,0,13.3,0,20c0,8.6,0,17.3,0,25.9c0,0.9-0.1,1.8-0.3,2.6
		C79.4,58.2,76.9,60,74,60C62.7,60,51.5,60,40.2,60z M76.5,18.5c-24.2,0-48.3,0-72.5,0c0,0.6,0,1.1,0,1.6c0,5.6,0,11.2,0,16.8
		c0,5.4,0,10.9,0,16.3c0,1.8,1,2.7,2.7,2.8c0.2,0,0.4,0,0.6,0c15.5,0,30.9,0,46.4,0c6.6,0,13.3,0,19.9,0c1.8,0,2.7-1,2.8-2.7
		c0-0.2,0-0.4,0-0.6c0-10.1,0-20.2,0-30.3C76.5,21.1,76.5,19.8,76.5,18.5z M63.7,13.6c0-2.1,0-4.2,0-6.3c0-2.4-0.8-3.2-3.2-3.2
		c-10.8,0-21.7,0-32.5,0c-7.1,0-14.2,0-21.2,0C5.1,4.1,4.1,5,4.1,6.7c0,0.9,0,1.8,0,2.8c0,1.3,0,2.7,0,4.1
		C24,13.6,43.8,13.6,63.7,13.6z M71.6,13.6c2.4,0,4.5-2,4.5-4.5c0-2.6-2-4.6-4.5-4.6c-2.5,0-4.5,2-4.5,4.5
		C67,11.6,69.1,13.6,71.6,13.6z"/>
	<path class="st0" d="M57.5,33.5c-0.3,1.3-0.6,2.6-0.9,3.8c-0.4,1.5-0.7,3-1,4.5c-0.1,0.5-0.3,0.8-0.9,0.8c-0.7-0.1-1.4,0-2.1,0
		c-0.5,0-0.7-0.1-0.9-0.6c-1-3.5-2-6.9-3-10.4c-0.1-0.2-0.1-0.4-0.1-0.6c0.9,0,1.8,0,2.7,0c0.2,0,0.5,0.3,0.6,0.6
		c0.7,2.6,1.3,5.2,2,7.8c0-0.3,0.1-0.5,0.2-0.8c0.6-2.3,1.1-4.7,1.7-7c0.1-0.4,0.3-0.6,0.7-0.6c1,0,1.9,0,3,0c0.7,2.8,1.3,5.6,2,8.5
		c0.1-0.3,0.1-0.5,0.2-0.7c0.6-2.4,1.2-4.8,1.8-7.2c0.1-0.4,0.3-0.6,0.7-0.5c0.8,0,1.7,0,2.6,0c-0.5,1.7-1,3.3-1.4,4.9
		c-0.6,2-1.2,4-1.8,6c-0.2,0.6-0.4,0.8-1.1,0.8c-0.5-0.1-1,0-1.5,0c-1.4,0-1.1,0.1-1.4-1.2c-0.6-2.6-1.2-5.2-1.8-7.9
		C57.6,33.5,57.5,33.5,57.5,33.5z"/>
	<path class="st0" d="M26.1,31c1.1,0,2.1,0,3.2,0c-0.2,0.9-0.5,1.6-0.7,2.4c-0.8,2.8-1.7,5.6-2.5,8.5c-0.2,0.5-0.4,0.8-0.9,0.7
		c-0.7-0.1-1.4,0-2.1,0c-0.5,0-0.7-0.2-0.9-0.7c-0.6-2.8-1.3-5.6-2.1-8.4c-0.7,3-1.4,6-2.2,9c-1.1,0-2.1,0-3.1,0
		c-0.2,0-0.4-0.2-0.5-0.4c-1.1-3.6-2.1-7.2-3.2-10.9c0-0.1,0-0.2,0-0.3c0.9,0,1.8,0,2.7,0c0.2,0,0.5,0.4,0.5,0.6
		c0.7,2.5,1.3,5.1,2,7.7c0.1-0.7,0.2-1.4,0.4-2.1c0.5-1.9,1-3.9,1.5-5.8c0.1-0.2,0.3-0.5,0.5-0.5c1,0,2.1,0,3.2,0
		c0.7,2.9,1.3,5.7,1.9,8.3C24.7,36.6,25.4,33.8,26.1,31z"/>
	<path class="st0" d="M29.8,31c1,0,1.9,0,2.8,0c0.2,0,0.5,0.4,0.5,0.6c0.6,2.5,1.2,5.1,1.8,7.6c0,0,0.1,0.1,0.2,0.3
		c0.1-0.4,0.1-0.6,0.2-0.9c0.6-2.4,1.1-4.7,1.7-7.1c0.1-0.2,0.4-0.5,0.6-0.5c1-0.1,2,0,3.1,0c0.7,2.8,1.3,5.6,2,8.3
		c0.7-2.7,1.4-5.5,2.1-8.2c1.1,0,2.1,0,3.1,0c0,0.2,0,0.4-0.1,0.6c-1,3.4-2,6.9-3,10.3c-0.1,0.5-0.4,0.7-0.9,0.7c-0.7,0-1.5,0-2.2,0
		c-0.5,0-0.7-0.2-0.8-0.7c-0.6-2.6-1.2-5.1-1.8-7.6c-0.1-0.3-0.1-0.5-0.3-1c-0.5,2-0.9,3.8-1.3,5.5c-0.2,1-0.5,2-0.7,3.1
		c-0.1,0.5-0.3,0.7-0.8,0.7c-0.9-0.1-2,0.3-2.7-0.2c-0.6-0.4-0.6-1.6-0.9-2.4c-0.8-2.8-1.6-5.5-2.4-8.3C30,31.5,29.9,31.3,29.8,31z"
		/>
	<path class="st0" d="M70,42.8c-1.2,0-1.9-0.6-1.9-1.7c0-1.2,0.6-1.7,1.8-1.8c1.2,0,1.9,0.6,1.9,1.7C71.9,42.2,71.2,42.8,70,42.8z"
		/>
</g>
</svg>
