<?xml version="1.0" encoding="utf-8"?>
<!-- Generator: Adobe Illustrator 19.1.0, SVG Export Plug-In . SVG Version: 6.00 Build 0)  -->
<svg version="1.1" id="Слой_1" xmlns="http://www.w3.org/2000/svg" xmlns:xlink="http://www.w3.org/1999/xlink" x="0px" y="0px"
	 viewBox="0 0 79.1 66.5" style="enable-background:new 0 0 79.1 66.5;" xml:space="preserve">
<style type="text/css">
	.st0{fill:#FFFFFF;}
</style>
<g>
	<path class="st0" d="M0,56.6c2,0,3.9,0,6,0c0-0.7,0-1.3,0-2c0-12.2,0-24.5,0-36.7c0-0.8,0.1-1.7,0.4-2.5c0.9-2.1,2.5-3.3,4.8-3.3
		c6.9-0.1,13.9,0,20.8,0c0.1,0,0.1,0,0.4,0.1c-0.9,0.8-1.6,1.6-2.5,2.3c-0.2,0.2-0.6,0.2-0.9,0.2c-5.8,0-11.6,0-17.5,0
		c-2,0-3,1.1-3,3c0,12.5,0,25,0,37.5c0,0.4,0,0.9,0,1.4c6.9,0,13.7,0,20.5,0c0,0.3,0.1,0.5,0.1,0.7c0.1,1.6,1.2,2.7,2.8,2.7
		c4.6,0,9.1-0.1,13.7,0c1.9,0,3.5-0.7,3.5-3.3c7.3,0,14.5,0,21.9,0c0-0.5,0-0.9,0-1.3c0-12.6,0-25.1,0-37.7c0-1.9-1-3-3-3
		c-0.7,0-1.5,0-2.3,0c0-0.9,0-1.7,0-2.6c1.6,0,3.1-0.3,4.6,0.4c2.1,1,3.2,2.7,3.2,5c0,9.3,0,18.7,0,28c0,3.5,0,7,0,10.5
		c0,0.2,0,0.4,0,0.6c1.7,0,3.5,0,5.3,0c-0.1,2.2,0.4,4.4-0.4,6.5c-0.7,2.1-2.7,3.4-5,3.4c-9.1,0-18.3,0-27.4,0
		c-13.6,0-27.1,0-40.7,0c-3.3,0-5.6-2.3-5.6-5.6C0,59.5,0,58,0,56.6z"/>
	<path class="st0" d="M58.3,7.4c-1-0.9-1.7-1.7-2.7-2.6c-0.4,0.5-0.8,1-1.2,1.5c-6.5,6.5-13,13-19.5,19.5c-0.2,0.2-0.4,0.5-0.6,0.5
		c-0.3,0.1-0.8,0.1-1-0.1c-0.2-0.2-0.2-0.7-0.2-1c0-0.2,0.3-0.4,0.5-0.6C40.3,17.8,47.1,11,53.9,4.2c0.2-0.2,0.4-0.4,0.7-0.8
		c-0.4-0.1-0.6-0.1-0.8-0.1c-1,0-2.1,0-3.1,0c-0.6,0-1,0.2-1.4,0.6c-6,6-12,12-18,18c-0.4,0.4-0.8,0.7-1.3,0.8
		c-0.8,0.2-1.5-0.2-1.9-0.8c-0.4-0.7-0.3-1.5,0.4-2.1c2-2,4.1-4.1,6.1-6.1c4.3-4.3,8.6-8.6,12.9-12.9C48,0.2,48.6,0,49.4,0
		c1.8,0,3.5,0,5.3,0c0.8,0,1.5,0.2,2.1,0.8c1.8,1.9,3.7,3.7,5.5,5.5c0.6,0.6,0.9,1.2,0.9,2.1c0,1.7,0.1,3.4,0,5.2
		c0,0.6-0.3,1.3-0.7,1.8c-6.3,6.4-12.6,12.7-19,19c-0.9,0.9-1.9,1-2.6,0.2c-0.8-0.8-0.7-1.8,0.2-2.7c6.1-6.1,12.2-12.1,18.3-18.2
		c0.4-0.4,0.6-0.8,0.6-1.5c0-1,0-2,0-3c0-0.2-0.1-0.5-0.2-0.7c-0.2,0.1-0.5,0.2-0.7,0.4c-3.4,3.4-6.8,6.8-10.2,10.2
		c-3.4,3.4-6.9,6.9-10.3,10.3c-0.8,0.8-1.2,0.9-1.7,0.4c-0.6-0.7-0.1-1.2,0.4-1.6C43.9,21.4,50.7,14.7,57.4,8
		C57.6,7.8,57.9,7.6,58.3,7.4z"/>
	<path class="st0" d="M22.5,41.7c-1.5,0-2.2-1.1-1.8-2.5c1-3.4,2-6.8,3-10.2c0.4-1.4,0.8-2.8,1.2-4.2c0.3-1.2,1.2-1.7,2.3-1.4
		c1,0.3,1.5,1.2,1.1,2.4c-0.6,2.3-1.3,4.6-2,6.9c-0.2,0.5-0.1,0.9,0.3,1.2c0.7,0.6,1.3,1.2,1.9,1.9c0.4,0.5,0.8,0.5,1.4,0.4
		c2.4-0.6,4.8-1.2,7.2-1.8c0.8-0.2,1.4,0,1.9,0.7c0.8,1.1,0.3,2.5-1.1,2.8c-2.3,0.6-4.7,1.2-7,1.8c-2.6,0.7-5.2,1.3-7.8,2
		C22.8,41.7,22.6,41.7,22.5,41.7z"/>
</g>
</svg>
