<?xml version="1.0" encoding="utf-8"?>
<!-- Generator: Adobe Illustrator 19.1.0, SVG Export Plug-In . SVG Version: 6.00 Build 0)  -->
<svg version="1.1" id="Слой_1" xmlns="http://www.w3.org/2000/svg" xmlns:xlink="http://www.w3.org/1999/xlink" x="0px" y="0px"
	 viewBox="0 0 64.3 72.2" style="enable-background:new 0 0 64.3 72.2;" xml:space="preserve">
<style type="text/css">
	.st0{fill:#FFFFFF;}
</style>
<g>
	<path class="st0" d="M14.6,72.2c-1.5-0.6-2.9-1.3-4-2.5c-1.2-1.3-2-2.8-2.1-4.5c-0.1-4-0.1-7.9-0.2-11.9c0-1.1,0-2.2,0-3.3
		c1.9,0,3.8,0,5.8,0c0,0.3,0,0.5,0,0.8c0,4.4,0,8.8,0,13.2c0,1.3,1.4,2.7,2.7,2.7c13,0,26.1,0,39.1,0c1.6,0,2.7-1.2,2.7-2.9
		c0-7.9,0-15.9,0-23.8c0-10.4,0-20.8,0-31.2c0-1.9-1.2-3.3-3.2-3.3c-12.7,0.1-25.5,0-38.2,0c-1.6,0-3.1,1.3-3.1,3.1
		c0.1,4.3,0,8.6,0,13c0,0.2,0,0.4,0,0.7c-2,0-3.8,0-5.8,0c0-0.3,0-0.5,0-0.7c0-4.3,0-8.7,0-13c0.1-4,2.1-7,6-8.3
		c0.1,0,0.1-0.1,0.2-0.1c14.5,0,29,0,43.5,0c0.1,0,0.1,0.1,0.2,0.1c3.5,0.9,6.1,4.5,6,8.3c-0.1,16.2,0,32.4,0,48.6
		c0,2.8,0,5.6-0.2,8.4c-0.2,2.3-1.5,4-3.3,5.4c-0.8,0.6-1.9,1-2.8,1.4C43.6,72.2,29.1,72.2,14.6,72.2z"/>
	<path class="st0" d="M43.5,36.1c-1.5,1.3-2.8,2.4-4.2,3.6c-0.8,0.7-1.6,1.4-2.4,2.1c-1.7,1.5-3.5,3-5.2,4.5
		c-1.2,1.1-2.4,2.2-3.7,3.2c-1.8,1.5-3.5,3.1-5.3,4.6c-1,0.9-2.9-0.1-3-1.6c-0.1-1.8-0.1-3.7-0.2-5.5c0-0.8,0-1.6,0-2.4
		c-0.3,0-0.6,0-0.8,0c-5.1,0-10.1,0-15.2,0c-0.9,0-1.9-0.1-2.6-0.9C0.3,43.1,0,42.4,0,41.7c0-3.7,0-7.4,0-11c0-1.5,1-2.8,2.5-2.8
		c2.9-0.1,5.9-0.1,8.8-0.2c2.7,0,5.4,0,8.2,0c0-0.3,0-0.5,0-0.8c0-2.1,0-4.2,0-6.3c0-0.5,0.1-1.1,0.3-1.6c0.6-1.4,2.1-1.6,3.2-0.6
		c1.6,1.4,3.2,2.7,4.8,4.1c1.2,1.1,2.4,2.1,3.6,3.2c1.6,1.4,3.2,2.8,4.8,4.1c1.2,1,2.3,2,3.5,3c1,0.9,2,1.7,3,2.5
		C42.9,35.6,43.2,35.8,43.5,36.1z"/>
</g>
</svg>
