<?xml version="1.0" encoding="utf-8"?>
<!-- Generator: Adobe Illustrator 19.1.0, SVG Export Plug-In . SVG Version: 6.00 Build 0)  -->
<svg version="1.1" id="Слой_1" xmlns="http://www.w3.org/2000/svg" xmlns:xlink="http://www.w3.org/1999/xlink" x="0px" y="0px"
	 viewBox="0 0 51.8 55.5" style="enable-background:new 0 0 51.8 55.5;" xml:space="preserve">
<style type="text/css">
	.st0{fill:#FFFDFE;}
	.st1{fill:#FFFFFF;}
</style>
<g>
	<g>
		<path class="st0" d="M20.6,2.5c0,1.1,0,1.9,0,2.8c0,0.8,0,1.6,0,2.4c0,0.5-0.1,1-0.6,1.3c-1.2,1-2.4,2.1-3.6,3.2
			c-0.3,0.3-0.7,0.3-1.1,0.3c-1.4-0.2-2.8,0.8-2.7,2.6c0,0.5-0.3,0.6-0.5,0.9c-1.9,1.7-3.9,3.4-5.8,5.1c-0.2,0.1-0.3,0.3-0.5,0.5
			c1.5,1.2,3,2.3,4.5,3.4c4.9,3.6,9.8,7.2,14.7,10.8c1.1,0.8,0.7,0.8,1.7,0c3.1-2.2,6.1-4.4,9.1-6.7c3.1-2.3,6.1-4.5,9.2-6.8
			c0.3-0.3,0.7-0.5,1-0.9c-1.4-1.3-2.8-2.5-4.2-3.7c-0.7-0.6-1.4-1.2-2.1-1.8c-0.3-0.3-0.5-0.6-0.6-1.1c-0.1-1.5-1-2.2-2.6-2.2
			c-0.5,0-0.8-0.1-1.2-0.4c-1.2-1.1-2.5-2.2-3.8-3.3c-0.2-0.2-0.4-0.5-0.4-0.7c0-1.8,0-3.6,0-5.6c0.8,0.6,1.4,1.2,2,1.7
			c4.1,3.6,8.2,7.1,12.3,10.7c1.6,1.4,3.2,2.8,4.9,4.2c0.2,0.2,0.5,0.4,0.8,0.5c0.4,0.1,0.6,0.4,0.6,0.8c0,0.2,0,0.4,0,0.7
			c0,11,0,22.1,0,33.1c0,1.5,0,1.5-1.5,1.5c-16.3,0-32.5,0-48.8,0C0,55.5,0,55.5,0,54C0,43,0,32,0,20.9c0-0.3,0-0.5,0-0.8
			c0-0.4,0.2-0.6,0.6-0.7c0.5,0,0.9-0.4,1.2-0.7c5.5-4.8,11-9.5,16.4-14.3C18.9,3.9,19.7,3.3,20.6,2.5z M47.3,26.3
			c-0.4,0.3-0.7,0.4-0.9,0.6c-3.9,2.8-7.8,5.7-11.7,8.6c-2.7,2-5.4,4-8.2,6c-0.7,0.5-0.7,0.5-1.4,0c-0.8-0.6-1.5-1.1-2.3-1.7
			c-5.8-4.3-11.6-8.5-17.5-12.8c-0.3-0.2-0.5-0.5-1-0.5c0,0.3,0,0.6,0,0.9c0,7.5,0,15,0,22.5C4.5,51,4.4,51,5.6,51
			c13.5,0,27.1,0,40.6,0c1.2,0,1.1,0.1,1.1-1.1c0-7.5,0-14.9,0-22.4C47.3,27.1,47.3,26.8,47.3,26.3z"/>
		<path class="st0" d="M22.4,17.2c0-0.5,0-0.9,0-1.3c0-4.8,0-9.5,0-14.3c0-0.3,0-0.5,0-0.8c0-0.8,0.2-0.9,0.9-0.9c1.7,0,3.4,0,5.1,0
			c0.7,0,0.8,0.1,0.9,0.8c0,0.3,0,0.5,0,0.8c0,4.8,0,9.6,0,14.4c0,0.4,0,0.7,0,1.2c0.3-0.1,0.5-0.1,0.8-0.2c1.9-0.8,3.8-1.5,5.8-2.3
			c0.1,0,0.2-0.1,0.3-0.1c0.4-0.2,0.8-0.3,1.1,0.1c0.3,0.4,0,0.7-0.3,1.1c-1.2,1.6-2.5,3.2-3.7,4.8c-2.1,2.8-4.3,5.6-6.4,8.4
			c0,0.1-0.1,0.1-0.1,0.2c-0.7,0.8-0.9,0.8-1.6,0c-3.4-4.4-6.8-8.8-10.2-13.3c0,0,0-0.1-0.1-0.1c-0.2-0.3-0.6-0.6-0.2-1.1
			c0.3-0.4,0.7-0.2,1.1,0c2,0.8,4,1.6,6,2.3C21.9,17,22.1,17.1,22.4,17.2z"/>
	</g>
</g>
</svg>
