<?xml version="1.0" encoding="utf-8"?>
<!-- Generator: Adobe Illustrator 19.1.0, SVG Export Plug-In . SVG Version: 6.00 Build 0)  -->
<svg version="1.1" id="Слой_1" xmlns="http://www.w3.org/2000/svg" xmlns:xlink="http://www.w3.org/1999/xlink" x="0px" y="0px"
	 viewBox="0 0 52.9 52.7" style="enable-background:new 0 0 52.9 52.7;" xml:space="preserve">
<style type="text/css">
	.st0{fill:#FFFDFE;}
	.st1{fill:#FFFFFF;}
</style>
<g>
	<g>
		<path class="st0" d="M47.4,42.2c0,2.8,0,5.6,0,8.5c0,1.5-0.6,2.1-2.1,2.1c-3.3,0-6.5,0-9.8,0c-1.6,0-2.1-0.6-2.1-2.2
			c0-4.5,0-9,0-13.6c0-1.7-0.5-2.2-2.2-2.2c-3.3,0-6.5,0-9.8,0c-1.6,0-2.2,0.6-2.2,2.2c0,4.3,0,8.6,0,12.9c0,0.3,0,0.6,0,0.8
			c0,1.3-0.6,1.9-1.9,2c-1.1,0-2.1,0-3.2,0c-2.3,0-4.5,0-6.8,0c-1.5,0-2.1-0.6-2.1-2.1c0-3.9,0-7.8,0-11.7c0-1.7,0-3.4,0-5.1
			c0-1,0.4-1.7,1.1-2.4c0.9-0.7,1.6-1.6,2.4-2.4c1-1,2-1.9,3-2.9c4.3-4.3,8.6-8.6,13-13c0.1-0.1,0.1-0.1,0.2-0.2
			c1-0.9,1.8-0.9,2.8,0c1.8,1.7,3.5,3.5,5.2,5.2c3.5,3.5,6.9,7,10.4,10.4c0.9,0.9,1.9,1.8,2.8,2.7c0.8,0.8,1.3,1.6,1.2,2.8
			C47.4,36.8,47.4,39.5,47.4,42.2z"/>
		<path class="st0" d="M26.3,8.9c-0.6-0.1-1,0.3-1.4,0.7c-2.2,2.2-4.3,4.3-6.5,6.5c-3.4,3.4-6.8,6.8-10.3,10.3
			c-0.6,0.6-1.2,1.3-1.9,2c-0.5,0.5-1.1,1-1.7,1.4c-0.7,0.5-1.4,0.5-2.1-0.2c-0.6-0.6-1.2-1.3-1.8-1.9c-0.9-1.1-0.9-1.8,0.1-2.8
			c4.1-4.1,8.1-8.1,12.2-12.2C16.9,8.8,20.8,4.9,24.7,1c0.1-0.1,0.2-0.3,0.4-0.4c0.9-0.8,1.7-0.8,2.6,0c1.7,1.7,3.4,3.3,5,5
			C39.1,12.1,45.6,18.5,52,25c1.1,1.1,1.1,1.9,0,3.1c-0.6,0.6-1.1,1.2-1.7,1.7c-0.9,0.8-1.4,0.7-2.4,0c-0.3-0.3-0.6-0.6-0.9-0.9
			C40.7,22.5,34.4,16.1,28,9.8C27.6,9.3,27.1,8.8,26.3,8.9z"/>
		<path class="st0" d="M44.3,7.6c0,1.4,0,2.8,0,4.2c0,0.2,0,0.5,0,0.7c-0.1,0.4-0.4,0.6-0.8,0.3c-0.3-0.2-0.5-0.4-0.7-0.6
			c-1.9-2-3.8-3.9-5.8-5.9c-0.5-0.5-0.8-1.1-0.8-1.9c0-0.6,0-1.3,0-1.9c0-1.1,0.4-1.5,1.6-1.6c0.8,0,1.6,0,2.3,0c0.7,0,1.5,0,2.2,0
			c1.4,0,2,0.6,2,2C44.3,4.6,44.3,6.1,44.3,7.6z"/>
	</g>
</g>
</svg>
