<?xml version="1.0" encoding="utf-8"?>
<!-- Generator: Adobe Illustrator 19.1.0, SVG Export Plug-In . SVG Version: 6.00 Build 0)  -->
<svg version="1.1" id="Слой_1" xmlns="http://www.w3.org/2000/svg" xmlns:xlink="http://www.w3.org/1999/xlink" x="0px" y="0px"
	 viewBox="0 0 22.9 13" style="enable-background:new 0 0 22.9 13;" xml:space="preserve">
<style type="text/css">
	.st0{fill:#FFFFFF;}
</style>
<g>
	<path class="st0" d="M7.5,0.8C7.7,0.4,8,0.2,8.4,0.1c0.5-0.1,1-0.2,1.4-0.2c0.7,0,1.5,0,2.2,0.1c1.1,0.1,1.4,0.4,1.4,1.5
		c0,0.9-0.1,1.9-0.1,2.8c0,0.4,0,0.8,0.1,1.2c0,0.1,0,0.2,0.1,0.3c0.2,0.6,0.6,0.7,1,0.3c0.3-0.3,0.6-0.7,0.9-1.1
		c0.8-1.1,1.4-2.3,2-3.6c0.1-0.1,0.1-0.3,0.2-0.4c0.1-0.3,0.4-0.5,0.7-0.5c0.3,0,0.7,0,1,0c0.9,0,1.8,0,2.7,0c0.1,0,0.2,0,0.3,0
		c0.7,0,0.9,0.4,0.7,1c-0.2,0.5-0.4,1-0.7,1.4c-0.7,1-1.4,1.9-2.1,2.8c-0.2,0.3-0.4,0.6-0.6,0.9c-0.4,0.6-0.4,1,0.1,1.5
		c0.4,0.4,0.7,0.7,1.1,1.1c0.5,0.6,1.1,1.1,1.6,1.7c0.3,0.3,0.5,0.6,0.6,1c0.2,0.5,0.1,0.8-0.4,1C22.2,13,22,13,21.7,13
		c-1,0-1.9,0-2.9,0.1c-0.6,0-1.2-0.2-1.7-0.6c-0.5-0.5-1-1-1.5-1.5c-0.2-0.2-0.5-0.5-0.8-0.7c-0.5-0.4-1-0.3-1.3,0.3
		c-0.2,0.4-0.2,0.8-0.3,1.2c0,0.2,0,0.3,0,0.5C13.2,12.7,13,13,12.6,13C10.1,13.2,7.8,12.7,6,11c-1.3-1.2-2.3-2.6-3.2-4
		C1.7,5.2,0.8,3.4,0,1.6c-0.3-0.8-0.1-1.1,0.7-1.1c1,0,2,0,2.9,0c0.5,0,0.9,0.2,1.1,0.7c0.5,1.2,1.1,2.4,1.9,3.6
		c0.2,0.4,0.5,0.7,0.7,1C7.4,5.9,7.5,6,7.5,6c0.6,0.6,1.1,0.4,1.2-0.4C9,4.8,9,3.9,8.9,3c0-0.3-0.1-0.7-0.1-1c-0.1-0.6-0.4-1-1-1.1
		C7.7,0.9,7.6,0.8,7.5,0.8z"/>
</g>
</svg>
