<?xml version="1.0" encoding="utf-8"?>
<!-- Generator: Adobe Illustrator 19.1.0, SVG Export Plug-In . SVG Version: 6.00 Build 0)  -->
<svg version="1.1" id="Слой_1" xmlns="http://www.w3.org/2000/svg" xmlns:xlink="http://www.w3.org/1999/xlink" x="0px" y="0px"
	 viewBox="0 0 37.7 37.6" style="enable-background:new 0 0 37.7 37.6;" xml:space="preserve">
<style type="text/css">
	.st0{fill:#FFFFFF;}
</style>
<g>
	<path class="st0" d="M27.6,37.6c-1.6,0.1-3.2-0.5-4.7-1c-2.4-0.9-4.7-2.2-6.9-3.7c-3.4-2.3-6.4-5.1-9-8.3
		c-2.6-3.1-4.8-6.4-6.1-10.3c-0.4-1.3-0.7-2.7-0.9-4C-0.2,9,0.1,7.7,1.2,6.7c0.7-0.7,1.4-1.4,2.1-2c1.6-1.4,3.3-1.4,4.9,0
		c1.4,1.2,2.4,2.7,3.2,4.3c0.7,1.4,0.4,2.7-0.6,3.9c-0.4,0.4-0.8,0.9-1.2,1.3c-0.7,0.7-0.8,1.4-0.4,2.3c0.5,0.9,0.9,1.9,1.6,2.7
		c2.5,3.1,5.2,5.8,8.4,8.2c0.7,0.5,1.6,0.9,2.4,1.2c0.7,0.3,1.3,0.1,1.9-0.4c0.5-0.5,0.9-0.9,1.4-1.3c1.2-1.1,2.6-1.2,4-0.5
		c1.5,0.7,2.9,1.7,4,2.9c1.5,1.6,1.6,3.5,0.1,5.2c-0.7,0.8-1.5,1.6-2.3,2.3C29.9,37.5,28.8,37.6,27.6,37.6z"/>
	<path class="st0" d="M18.4,3.9c-0.5,0-1,0-1.5,0c-0.9-0.1-1.5-0.7-1.6-1.6c-0.1-0.9,0.4-1.8,1.2-2.1C17.1,0.1,17.7,0,18.2,0
		c3.4-0.1,6.5,0.9,9.3,2.7C31.2,5,34.1,8.1,36,12c1.1,2.3,1.7,4.8,1.7,7.4c0,0.5-0.1,1-0.2,1.5c-0.3,1-1.1,1.6-2.1,1.5
		c-1-0.1-1.6-0.8-1.7-1.8c0-0.2,0-0.4,0-0.5c0.4-3.2-0.7-5.9-2.4-8.5c-2-2.9-4.6-5.2-7.9-6.6C21.8,4.2,20.2,3.8,18.4,3.9z"/>
	<path class="st0" d="M30.4,18.5c0,1.1-0.6,1.9-1.6,2.1c-0.9,0.2-1.9-0.4-2.3-1.4c-0.4-1.1-0.7-2.3-1.2-3.3
		c-1.3-2.3-3.3-3.9-5.9-4.5c-0.3-0.1-0.6-0.1-0.8-0.2c-1.1-0.3-1.8-1.4-1.5-2.4c0.3-1,1.3-1.6,2.4-1.4c2,0.3,3.8,1.1,5.5,2.3
		c2.9,2.1,4.7,4.8,5.4,8.3C30.4,18.1,30.4,18.3,30.4,18.5z"/>
</g>
</svg>
