<?xml version="1.0" encoding="utf-8"?>
<!-- Generator: Adobe Illustrator 19.1.0, SVG Export Plug-In . SVG Version: 6.00 Build 0)  -->
<svg version="1.1" id="Слой_1" xmlns="http://www.w3.org/2000/svg" xmlns:xlink="http://www.w3.org/1999/xlink" x="0px" y="0px"
	 viewBox="0 0 7.7 15.7" style="enable-background:new 0 0 7.7 15.7;" xml:space="preserve">
<style type="text/css">
	.st0{fill:#FFFFFF;}
</style>
<path class="st0" d="M4.8,7.9c0,2.7,0,5.2,0,7.8c-1.1,0-2.1,0-3.2,0c0-2.6,0-5.1,0-7.7C1,7.9,0.5,7.8,0,7.8C0,7,0,6.3,0,5.4
	c0.5,0,0.9-0.1,1.4-0.1c0-0.3,0.1-0.5,0.1-0.8c0-0.3,0-0.5,0-0.8C1.6,1,2.6,0.1,5.4,0c0.7,0,1.5,0.2,2.3,0.3
	C7.6,1.1,7.5,1.9,7.3,2.7c-0.4,0-0.8-0.1-1.2-0.1c-1-0.1-1.4,0.2-1.4,1.2c0,0.5,0,0.9,0,1.5c0.9,0,1.7,0,2.6,0
	C7.3,6.2,7.2,7,7.2,7.8C6.4,7.8,5.7,7.8,4.8,7.9z"/>
</svg>
